<svg width="331" height="229" viewBox="0 0 331 229" fill="none" xmlns="http://www.w3.org/2000/svg">
<path d="M169.884 53.6691C144.025 83.935 122.476 60.4635 82.4572 50.5807C15.6257 34.0767 0.000110792 95.8091 0 144.467C-0.000110792 193.124 37.9468 226.617 70.5069 226.617C121.134 226.617 131.337 186.211 157.378 186.211C190.079 186.211 232.067 238.352 283.169 226.617C330.576 215.729 346.79 81.8312 311.49 31.433C263.467 -37.1285 195.742 23.4033 169.884 53.6691Z" fill="#F1F1F1"/>
<mask id="mask0_367_10346" style="mask-type:alpha" maskUnits="userSpaceOnUse" x="0" y="0" width="331" height="229">
<path d="M169.884 53.6691C144.025 83.935 122.476 60.4635 82.4572 50.5807C15.6257 34.0767 0.000110792 95.8091 0 144.467C-0.000110792 193.124 37.9468 226.617 70.5069 226.617C121.134 226.617 131.337 186.211 157.378 186.211C190.079 186.211 232.067 238.352 283.169 226.617C330.576 215.729 346.79 81.8312 311.49 31.433C263.467 -37.1285 195.742 23.4033 169.884 53.6691Z" fill="#E6EAE5"/>
</mask>
<g mask="url(#mask0_367_10346)">
<path d="M326.806 208.201L330.852 209.853L93.8156 275.636C23.8646 268.206 -109.84 244.647 -85.0487 209.853C-54.0601 166.36 -19.2658 140.265 62.2833 140.265C160.427 140.265 173.512 145.608 326.806 208.201Z" fill="#CCD5CA"/>
<path d="M314.853 137.002C353.996 137.002 385.528 145.701 418.692 187.563L312.678 236.492C242.727 229.062 143.273 237.036 168.064 202.242C199.053 158.749 233.303 137.002 314.853 137.002Z" fill="#CCD5CA" stroke="#F1F1F1" stroke-width="4.34928"/>
<path d="M61.9214 133.153C68.3545 133.153 73.5894 138.388 73.5894 144.821V167.179H81.186V157.193C81.1861 152.458 85.015 148.619 89.7603 148.619C94.4875 148.619 98.3344 152.466 98.3345 157.193V169.566C98.3345 177.705 91.7124 184.327 83.5737 184.327H73.5894V225.45C73.5891 226.769 72.52 227.838 71.2017 227.838H52.6421C51.3235 227.838 50.2547 226.769 50.2544 225.45V199.793H40.269C32.1304 199.793 25.5083 193.171 25.5083 185.032V166.474C25.5083 161.738 29.3371 157.9 34.0825 157.899C38.8099 157.899 42.6567 161.746 42.6567 166.474V182.645H50.2544V144.821C50.2544 138.364 55.4789 133.153 61.9214 133.153Z" fill="#65895F" stroke="#7F977B"/>
<path fill-rule="evenodd" clip-rule="evenodd" d="M260.278 228.806C262.694 229.666 265.293 230.136 268 230.139C268.008 230.139 268.016 230.139 268.024 230.139C268.032 230.139 268.04 230.139 268.048 230.139C270.755 230.136 273.354 229.667 275.771 228.806C275.78 228.807 275.79 228.807 275.799 228.807L281.88 228.82H281.882C282.322 228.82 282.679 228.463 282.68 228.023C282.681 227.582 282.325 227.224 281.883 227.223L279.275 227.217C282.245 225.559 284.815 223.266 286.799 220.523L291.722 217.391C292.094 217.154 292.203 216.661 291.966 216.289C291.73 215.916 291.237 215.806 290.864 216.043L288.688 217.428C290.004 214.836 290.846 211.966 291.1 208.931C291.105 208.919 291.111 208.906 291.116 208.894L293.512 203.305C293.686 202.899 293.498 202.43 293.092 202.256C292.691 202.083 292.217 202.27 292.044 202.675L291.09 204.902C290.825 201.885 289.987 199.007 288.647 196.394C288.646 196.359 288.644 196.323 288.639 196.288L287.778 190.268C287.716 189.832 287.312 189.528 286.874 189.591C286.437 189.653 286.134 190.058 286.197 190.494L286.565 193.072C284.803 190.733 282.577 188.712 279.957 187.134C279.581 186.906 279.089 187.028 278.862 187.406C278.634 187.783 278.756 188.274 279.134 188.502C281.739 190.071 283.927 192.112 285.616 194.481L282.965 193.246C282.563 193.06 282.09 193.234 281.905 193.633C281.718 194.033 281.891 194.508 282.291 194.694L287.134 196.949C288.563 199.674 289.403 202.715 289.558 205.903L287.853 203.346C287.608 202.978 287.113 202.879 286.745 203.124C286.378 203.368 286.279 203.864 286.524 204.231L289.515 208.717C289.2 212.651 287.825 216.29 285.676 219.348C285.548 219.446 285.456 219.578 285.407 219.723C284.306 221.22 283.017 222.571 281.575 223.739C284.083 220.702 285.591 216.81 285.591 212.572C285.591 209.169 284.637 205.942 282.899 203.191L283.192 199.866C283.231 199.427 282.906 199.039 282.467 199.001C282.019 198.967 281.641 199.287 281.602 199.726L281.468 201.241C280.242 199.795 278.768 198.533 277.077 197.514C276.699 197.287 276.208 197.408 275.981 197.786C275.753 198.164 275.875 198.655 276.253 198.882C280.003 201.141 282.583 204.715 283.56 208.833L282.444 208.387C282.038 208.225 281.57 208.422 281.406 208.832C281.242 209.241 281.442 209.706 281.851 209.87L283.885 210.684C283.957 211.305 283.994 211.935 283.994 212.572C283.994 214.375 283.694 216.109 283.141 217.727L282.345 216.832C282.052 216.503 281.547 216.473 281.218 216.766C280.888 217.059 280.859 217.564 281.152 217.893L282.471 219.377C281.354 221.738 279.674 223.784 277.607 225.34C279.11 223.338 280.002 220.852 280.002 218.161C280.002 216.415 279.626 214.754 278.951 213.256L278.957 213.24L279.706 211.144C279.854 210.728 279.638 210.271 279.222 210.123C278.807 209.974 278.35 210.192 278.202 210.606L277.914 211.412C275.755 208.258 272.127 206.184 268.024 206.184C267.583 206.184 267.226 206.542 267.226 206.983C267.226 207.423 267.583 207.781 268.024 207.781C268.428 207.781 268.826 207.804 269.218 207.849L267.525 210.21C267.268 210.569 267.351 211.068 267.709 211.325C267.85 211.426 268.013 211.474 268.173 211.474C268.422 211.474 268.667 211.358 268.823 211.141L270.933 208.196C275.246 209.457 278.405 213.447 278.405 218.161C278.405 220.286 277.763 222.264 276.663 223.911L275.97 222.9C275.72 222.536 275.223 222.443 274.859 222.693C274.495 222.943 274.403 223.439 274.652 223.803L275.626 225.224C274.659 226.264 273.481 227.106 272.162 227.682C269.325 225.778 267.232 223.351 265.894 220.422L267.069 218.836C267.331 218.482 267.257 217.982 266.903 217.719C266.547 217.458 266.048 217.532 265.785 217.886L265.204 218.67C264.538 216.682 264.18 214.492 264.132 212.107C264.026 206.82 265.566 202.507 265.581 202.464C265.731 202.05 265.517 201.591 265.102 201.441C264.689 201.292 264.231 201.505 264.08 201.919C264.058 201.979 263.33 204.042 262.892 207.099L261.274 204.969C261.008 204.618 260.507 204.549 260.155 204.817C259.804 205.083 259.736 205.584 260.003 205.935L262.531 209.262C262.566 209.308 262.605 209.348 262.646 209.384C262.331 213.775 262.855 219.385 266.245 224.161L265.878 224.231C265.445 224.313 265.161 224.731 265.244 225.165C265.317 225.547 265.651 225.814 266.027 225.814C266.076 225.814 266.127 225.809 266.178 225.8L267.356 225.575C268.189 226.534 269.156 227.447 270.276 228.296C269.579 228.451 268.855 228.535 268.113 228.542C268.084 228.542 268.054 228.542 268.024 228.542C267.995 228.542 267.965 228.542 267.935 228.542C264.534 228.513 261.518 226.84 259.645 224.282L260.476 223.186C260.743 222.834 260.673 222.333 260.322 222.067C259.969 221.799 259.47 221.869 259.203 222.22L258.749 222.819C258.042 221.418 257.644 219.835 257.644 218.161C257.644 216.026 258.287 213.975 259.504 212.23C259.756 211.869 259.668 211.371 259.306 211.118C258.943 210.865 258.446 210.955 258.194 211.316C257.823 211.848 257.498 212.405 257.221 212.981L256.975 212.722C256.673 212.401 256.168 212.389 255.847 212.691C255.527 212.994 255.513 213.499 255.817 213.82L256.577 214.623C256.227 215.758 256.047 216.948 256.047 218.161C256.047 220.852 256.939 223.339 258.442 225.34C255.159 222.87 252.855 219.166 252.227 214.922L254.283 212.261C254.552 211.913 254.488 211.411 254.139 211.141C253.79 210.87 253.287 210.937 253.019 211.285L252.054 212.534C252.073 204.654 257.951 197.878 265.742 196.764C266.178 196.701 266.482 196.297 266.419 195.86C266.357 195.424 265.952 195.117 265.516 195.183C260.592 195.887 256.363 198.646 253.651 202.51V200.594C253.651 200.153 253.294 199.796 252.853 199.796C252.411 199.796 252.054 200.153 252.054 200.594V205.289C251.028 207.522 250.457 209.994 250.457 212.572C250.457 213.311 250.503 214.039 250.592 214.754C250.594 214.786 250.598 214.818 250.604 214.85C251.04 218.199 252.422 221.255 254.473 223.739C253.031 222.57 251.742 221.219 250.641 219.722C250.592 219.577 250.501 219.446 250.373 219.348C248.224 216.29 246.849 212.651 246.534 208.717L249.525 204.231C249.77 203.864 249.671 203.368 249.303 203.124C248.935 202.879 248.44 202.978 248.196 203.346L246.491 205.903C246.646 202.73 247.483 199.688 248.932 196.942L253.757 194.694C254.157 194.508 254.33 194.033 254.144 193.633C253.959 193.234 253.485 193.06 253.084 193.246L250.462 194.467C251.193 193.446 252.019 192.481 252.936 191.583C253.251 191.274 253.256 190.769 252.947 190.454C252.639 190.138 252.134 190.134 251.818 190.442C250.964 191.279 250.183 192.17 249.478 193.107L249.852 190.494C249.915 190.058 249.611 189.653 249.175 189.591C248.738 189.532 248.333 189.832 248.271 190.268L247.41 196.288C247.404 196.332 247.401 196.376 247.402 196.419C246.054 199.042 245.223 201.911 244.959 204.902L244.005 202.675C243.831 202.269 243.358 202.082 242.957 202.256C242.551 202.43 242.363 202.899 242.537 203.305L244.933 208.894C244.938 208.906 244.943 208.918 244.949 208.93C245.203 211.965 246.045 214.836 247.36 217.428L245.184 216.043C244.812 215.807 244.319 215.916 244.082 216.289C243.845 216.661 243.955 217.154 244.327 217.391L249.25 220.523C251.234 223.266 253.803 225.559 256.773 227.217L254.165 227.223C253.724 227.224 253.367 227.582 253.368 228.023C253.369 228.463 253.726 228.82 254.167 228.82H254.168L260.249 228.807C260.259 228.807 260.268 228.807 260.278 228.806Z" fill="#65895F"/>
<path d="M268 230.139L268 229.889L268 229.889L268 230.139ZM260.278 228.806L260.362 228.571L260.317 228.555L260.269 228.556L260.278 228.806ZM268.048 230.139L268.047 229.889L268.047 229.889L268.048 230.139ZM275.771 228.806L275.78 228.557L275.732 228.555L275.687 228.571L275.771 228.806ZM275.799 228.807L275.8 228.557L275.8 228.557L275.799 228.807ZM281.88 228.82L281.88 229.07H281.88V228.82ZM282.68 228.023L282.43 228.022L282.43 228.022L282.68 228.023ZM281.883 227.223L281.883 227.473L281.883 227.473L281.883 227.223ZM279.275 227.217L279.153 226.999L278.318 227.465L279.275 227.467L279.275 227.217ZM286.799 220.523L286.665 220.312L286.624 220.338L286.596 220.377L286.799 220.523ZM291.722 217.391L291.856 217.602L291.856 217.602L291.722 217.391ZM291.966 216.289L291.755 216.423L291.756 216.423L291.966 216.289ZM290.864 216.043L290.73 215.832L290.73 215.833L290.864 216.043ZM288.688 217.428L288.465 217.314L288.052 218.129L288.823 217.639L288.688 217.428ZM291.1 208.931L290.875 208.821L290.854 208.863L290.85 208.91L291.1 208.931ZM291.116 208.894L290.886 208.796L290.886 208.796L291.116 208.894ZM293.512 203.305L293.282 203.206L293.282 203.206L293.512 203.305ZM293.092 202.256L292.993 202.486L292.994 202.486L293.092 202.256ZM292.044 202.675L292.274 202.774L292.274 202.774L292.044 202.675ZM291.09 204.902L290.841 204.923L291.32 205L291.09 204.902ZM288.647 196.394L288.397 196.396L288.397 196.455L288.424 196.508L288.647 196.394ZM288.639 196.288L288.886 196.253L288.886 196.253L288.639 196.288ZM287.778 190.268L287.53 190.304L287.53 190.304L287.778 190.268ZM286.874 189.591L286.909 189.838L286.91 189.838L286.874 189.591ZM286.197 190.494L285.949 190.53L285.949 190.53L286.197 190.494ZM286.565 193.072L286.366 193.222L286.813 193.036L286.565 193.072ZM279.957 187.134L279.828 187.348L279.828 187.348L279.957 187.134ZM278.862 187.406L279.076 187.535L279.076 187.534L278.862 187.406ZM279.134 188.502L279.263 188.287L279.263 188.287L279.134 188.502ZM285.616 194.481L285.51 194.707L286.37 195.108L285.82 194.335L285.616 194.481ZM282.965 193.246L283.071 193.02L283.07 193.019L282.965 193.246ZM281.905 193.633L282.131 193.738L282.131 193.738L281.905 193.633ZM282.291 194.694L282.186 194.921L282.186 194.921L282.291 194.694ZM287.134 196.949L287.355 196.833L287.316 196.758L287.239 196.723L287.134 196.949ZM289.558 205.903L289.35 206.042L289.851 206.794L289.807 205.891L289.558 205.903ZM287.853 203.346L287.645 203.484L287.645 203.484L287.853 203.346ZM286.745 203.124L286.884 203.332L286.884 203.332L286.745 203.124ZM286.524 204.231L286.732 204.093L286.732 204.093L286.524 204.231ZM289.515 208.717L289.764 208.737L289.771 208.651L289.723 208.579L289.515 208.717ZM285.676 219.348L285.828 219.546L285.859 219.523L285.881 219.491L285.676 219.348ZM285.407 219.723L285.608 219.871L285.631 219.84L285.643 219.803L285.407 219.723ZM281.575 223.739L281.382 223.58L281.732 223.934L281.575 223.739ZM282.899 203.191L282.65 203.169L282.643 203.253L282.688 203.324L282.899 203.191ZM283.192 199.866L282.943 199.844L282.943 199.844L283.192 199.866ZM282.467 199.001L282.489 198.751L282.486 198.751L282.467 199.001ZM281.602 199.726L281.353 199.704L281.353 199.704L281.602 199.726ZM281.468 201.241L281.277 201.403L281.664 201.86L281.717 201.263L281.468 201.241ZM277.077 197.514L277.206 197.3L277.206 197.3L277.077 197.514ZM275.981 197.786L276.195 197.915L276.195 197.915L275.981 197.786ZM276.253 198.882L276.382 198.668L276.382 198.668L276.253 198.882ZM283.56 208.833L283.467 209.065L283.914 209.244L283.803 208.776L283.56 208.833ZM282.444 208.387L282.351 208.619L282.351 208.619L282.444 208.387ZM281.406 208.832L281.174 208.739L281.174 208.739L281.406 208.832ZM281.851 209.87L281.758 210.102L281.758 210.102L281.851 209.87ZM283.885 210.684L284.134 210.655L284.116 210.507L283.978 210.451L283.885 210.684ZM283.141 217.727L282.954 217.893L283.238 218.213L283.377 217.808L283.141 217.727ZM282.345 216.832L282.532 216.666L282.532 216.666L282.345 216.832ZM281.218 216.766L281.052 216.579L281.052 216.579L281.218 216.766ZM281.152 217.893L281.339 217.727L281.339 217.727L281.152 217.893ZM282.471 219.377L282.697 219.484L282.767 219.334L282.658 219.211L282.471 219.377ZM277.607 225.34L277.407 225.19L277.757 225.54L277.607 225.34ZM278.951 213.256L278.716 213.17L278.681 213.266L278.723 213.359L278.951 213.256ZM278.957 213.24L279.192 213.326L279.192 213.324L278.957 213.24ZM279.706 211.144L279.47 211.059L279.47 211.06L279.706 211.144ZM279.222 210.123L279.138 210.358L279.138 210.358L279.222 210.123ZM278.202 210.606L278.438 210.691L278.438 210.69L278.202 210.606ZM277.914 211.412L277.708 211.553L277.985 211.958L278.15 211.496L277.914 211.412ZM269.218 207.849L269.421 207.995L269.668 207.649L269.246 207.601L269.218 207.849ZM267.525 210.21L267.728 210.356L267.729 210.356L267.525 210.21ZM267.709 211.325L267.563 211.528L267.563 211.528L267.709 211.325ZM268.823 211.141L268.62 210.995L268.62 210.995L268.823 211.141ZM270.933 208.196L271.004 207.956L270.833 207.906L270.73 208.05L270.933 208.196ZM276.663 223.911L276.457 224.053L276.666 224.357L276.871 224.05L276.663 223.911ZM275.97 222.9L276.176 222.759L276.176 222.759L275.97 222.9ZM274.859 222.693L275 222.899L275.001 222.899L274.859 222.693ZM274.652 223.803L274.445 223.944L274.446 223.944L274.652 223.803ZM275.626 225.224L275.809 225.394L275.945 225.247L275.832 225.082L275.626 225.224ZM272.162 227.682L272.023 227.889L272.136 227.965L272.262 227.911L272.162 227.682ZM265.894 220.422L265.693 220.273L265.605 220.392L265.667 220.526L265.894 220.422ZM267.069 218.836L267.27 218.985L267.27 218.985L267.069 218.836ZM266.903 217.719L267.052 217.519L267.051 217.518L266.903 217.719ZM265.785 217.886L265.585 217.737L265.585 217.737L265.785 217.886ZM265.204 218.67L264.967 218.75L265.119 219.205L265.405 218.819L265.204 218.67ZM264.132 212.107L264.382 212.102L264.382 212.102L264.132 212.107ZM265.581 202.464L265.816 202.549L265.816 202.549L265.581 202.464ZM265.102 201.441L265.188 201.206L265.187 201.206L265.102 201.441ZM264.08 201.919L264.315 202.004L264.315 202.004L264.08 201.919ZM262.892 207.099L262.693 207.25L263.055 207.726L263.14 207.134L262.892 207.099ZM261.274 204.969L261.074 205.12L261.075 205.12L261.274 204.969ZM260.155 204.817L260.004 204.617L260.003 204.618L260.155 204.817ZM260.003 205.935L259.804 206.086L259.804 206.086L260.003 205.935ZM262.531 209.262L262.731 209.111L262.731 209.111L262.531 209.262ZM262.646 209.384L262.896 209.402L262.905 209.277L262.81 209.195L262.646 209.384ZM266.245 224.161L266.291 224.407L266.674 224.334L266.448 224.016L266.245 224.161ZM265.878 224.231L265.831 223.985L265.831 223.985L265.878 224.231ZM265.244 225.165L264.998 225.211L264.998 225.212L265.244 225.165ZM266.178 225.8L266.223 226.045L266.224 226.045L266.178 225.8ZM267.356 225.575L267.545 225.411L267.451 225.303L267.31 225.329L267.356 225.575ZM270.276 228.296L270.33 228.54L270.857 228.423L270.427 228.097L270.276 228.296ZM268.113 228.542L268.114 228.792L268.115 228.792L268.113 228.542ZM267.935 228.542L267.933 228.792L267.934 228.792L267.935 228.542ZM259.645 224.282L259.445 224.13L259.333 224.279L259.443 224.429L259.645 224.282ZM260.476 223.186L260.277 223.034L260.277 223.034L260.476 223.186ZM260.322 222.067L260.474 221.867L260.473 221.867L260.322 222.067ZM259.203 222.22L259.004 222.069L259.004 222.069L259.203 222.22ZM258.749 222.819L258.526 222.932L258.706 223.29L258.948 222.97L258.749 222.819ZM259.504 212.23L259.709 212.373L259.71 212.373L259.504 212.23ZM259.306 211.118L259.45 210.913L259.449 210.913L259.306 211.118ZM258.194 211.316L258.399 211.459L258.4 211.459L258.194 211.316ZM257.221 212.981L257.04 213.153L257.289 213.416L257.447 213.089L257.221 212.981ZM256.975 212.722L256.794 212.893L256.794 212.894L256.975 212.722ZM255.847 212.691L255.676 212.509L255.675 212.509L255.847 212.691ZM255.817 213.82L255.998 213.648L255.998 213.648L255.817 213.82ZM256.577 214.623L256.816 214.696L256.859 214.557L256.759 214.451L256.577 214.623ZM258.442 225.34L258.292 225.54L258.642 225.19L258.442 225.34ZM252.227 214.922L252.029 214.769L251.964 214.854L251.979 214.959L252.227 214.922ZM254.283 212.261L254.085 212.109L254.085 212.109L254.283 212.261ZM254.139 211.141L253.986 211.339L253.986 211.339L254.139 211.141ZM253.019 211.285L253.217 211.438L253.218 211.437L253.019 211.285ZM252.054 212.534L251.804 212.533L251.803 213.269L252.252 212.687L252.054 212.534ZM265.742 196.764L265.706 196.516L265.706 196.516L265.742 196.764ZM266.419 195.86L266.667 195.825L266.667 195.825L266.419 195.86ZM265.516 195.183L265.551 195.431L265.553 195.43L265.516 195.183ZM253.651 202.51H253.401V203.302L253.856 202.654L253.651 202.51ZM252.054 205.289L252.281 205.394L252.304 205.344V205.289H252.054ZM250.592 214.754L250.841 214.737L250.841 214.73L250.84 214.723L250.592 214.754ZM250.604 214.85L250.852 214.818L250.851 214.811L250.85 214.804L250.604 214.85ZM254.473 223.739L254.316 223.933L254.666 223.58L254.473 223.739ZM250.641 219.722L250.405 219.803L250.417 219.839L250.44 219.87L250.641 219.722ZM250.373 219.348L250.168 219.492L250.19 219.523L250.221 219.547L250.373 219.348ZM246.534 208.717L246.326 208.579L246.278 208.651L246.285 208.737L246.534 208.717ZM249.525 204.231L249.317 204.093L249.317 204.093L249.525 204.231ZM249.303 203.124L249.442 202.916L249.442 202.916L249.303 203.124ZM248.196 203.346L248.404 203.484L248.404 203.484L248.196 203.346ZM246.491 205.903L246.241 205.891L246.197 206.794L246.699 206.041L246.491 205.903ZM248.932 196.942L248.826 196.715L248.75 196.75L248.711 196.825L248.932 196.942ZM253.757 194.694L253.863 194.921L253.863 194.921L253.757 194.694ZM254.144 193.633L253.917 193.738L253.917 193.738L254.144 193.633ZM253.084 193.246L252.979 193.019L252.978 193.02L253.084 193.246ZM250.462 194.467L250.258 194.322L249.704 195.096L250.567 194.694L250.462 194.467ZM252.936 191.583L253.111 191.761L253.111 191.761L252.936 191.583ZM252.947 190.454L252.768 190.628L252.769 190.629L252.947 190.454ZM251.818 190.442L251.644 190.263L251.643 190.263L251.818 190.442ZM249.478 193.107L249.231 193.071L249.678 193.257L249.478 193.107ZM249.852 190.494L250.1 190.53L250.1 190.53L249.852 190.494ZM249.175 189.591L249.21 189.343L249.208 189.343L249.175 189.591ZM248.271 190.268L248.023 190.233L248.023 190.233L248.271 190.268ZM247.41 196.288L247.162 196.253L247.162 196.253L247.41 196.288ZM247.402 196.419L247.624 196.533L247.653 196.477L247.652 196.413L247.402 196.419ZM244.959 204.902L244.729 205.001L245.208 204.924L244.959 204.902ZM244.005 202.675L243.775 202.774L243.775 202.774L244.005 202.675ZM242.957 202.256L243.055 202.486L243.056 202.486L242.957 202.256ZM242.537 203.305L242.767 203.206L242.767 203.206L242.537 203.305ZM244.933 208.894L245.162 208.796L245.162 208.796L244.933 208.894ZM244.949 208.93L245.198 208.909L245.194 208.863L245.174 208.82L244.949 208.93ZM247.36 217.428L247.226 217.639L247.997 218.129L247.583 217.315L247.36 217.428ZM245.184 216.043L245.319 215.832L245.318 215.832L245.184 216.043ZM244.082 216.289L244.293 216.423L244.293 216.423L244.082 216.289ZM244.327 217.391L244.461 217.18L244.461 217.18L244.327 217.391ZM249.25 220.523L249.452 220.377L249.424 220.338L249.384 220.312L249.25 220.523ZM256.773 227.217L256.774 227.467L257.73 227.465L256.895 226.999L256.773 227.217ZM254.165 227.223L254.166 227.473L254.166 227.473L254.165 227.223ZM253.368 228.023L253.118 228.023L253.118 228.023L253.368 228.023ZM254.168 228.82V229.07L254.169 229.07L254.168 228.82ZM260.249 228.807L260.249 228.557L260.248 228.557L260.249 228.807ZM268 230.139L268 229.889C265.323 229.886 262.751 229.421 260.362 228.571L260.278 228.806L260.194 229.042C262.636 229.911 265.264 230.386 268 230.389L268 230.139ZM268 230.139L268 230.389C268.008 230.389 268.016 230.389 268.024 230.389V230.139V229.889C268.016 229.889 268.008 229.889 268 229.889L268 230.139ZM268.024 230.139V230.389C268.032 230.389 268.04 230.389 268.048 230.389L268.048 230.139L268.047 229.889C268.04 229.889 268.032 229.889 268.024 229.889V230.139ZM275.771 228.806L275.687 228.571C273.297 229.422 270.725 229.886 268.047 229.889L268.048 230.139L268.048 230.389C270.784 230.386 273.412 229.911 275.854 229.042L275.771 228.806ZM275.771 228.806L275.761 229.056C275.774 229.057 275.786 229.057 275.799 229.057L275.799 228.807L275.8 228.557C275.793 228.557 275.786 228.557 275.78 228.557L275.771 228.806ZM275.799 228.807L275.799 229.057L281.88 229.07L281.88 228.82L281.881 228.57L275.8 228.557L275.799 228.807ZM281.88 228.82V229.07H281.882V228.82V228.57H281.88V228.82ZM281.882 228.82V229.07C282.46 229.07 282.929 228.602 282.93 228.023L282.68 228.023L282.43 228.022C282.43 228.325 282.184 228.57 281.882 228.57V228.82ZM282.68 228.023L282.93 228.023C282.931 227.444 282.463 226.974 281.884 226.973L281.883 227.223L281.883 227.473C282.186 227.473 282.431 227.719 282.43 228.022L282.68 228.023ZM281.883 227.223L281.884 226.973L279.276 226.967L279.275 227.217L279.275 227.467L281.883 227.473L281.883 227.223ZM286.799 220.523L286.596 220.377C284.634 223.09 282.092 225.359 279.153 226.999L279.275 227.217L279.397 227.436C282.399 225.76 284.996 223.442 287.002 220.67L286.799 220.523ZM291.722 217.391L291.587 217.18L286.665 220.312L286.799 220.523L286.933 220.734L291.856 217.602L291.722 217.391ZM291.966 216.289L291.756 216.423C291.918 216.678 291.843 217.017 291.587 217.18L291.722 217.391L291.856 217.602C292.344 217.291 292.489 216.643 292.177 216.154L291.966 216.289ZM290.864 216.043L290.998 216.254C291.255 216.091 291.593 216.167 291.755 216.423L291.966 216.289L292.178 216.155C291.867 215.666 291.22 215.521 290.73 215.832L290.864 216.043ZM288.688 217.428L288.823 217.639L290.998 216.254L290.864 216.043L290.73 215.833L288.554 217.217L288.688 217.428ZM291.1 208.931L290.85 208.91C290.599 211.912 289.766 214.751 288.465 217.314L288.688 217.428L288.911 217.541C290.241 214.921 291.092 212.019 291.349 208.951L291.1 208.931ZM291.116 208.894L290.886 208.796C290.883 208.804 290.879 208.812 290.875 208.821L291.1 208.931L291.324 209.04C291.332 209.025 291.339 209.009 291.346 208.993L291.116 208.894ZM293.512 203.305L293.282 203.206L290.886 208.796L291.116 208.894L291.346 208.993L293.742 203.403L293.512 203.305ZM293.092 202.256L292.994 202.486C293.272 202.605 293.401 202.928 293.282 203.206L293.512 203.305L293.742 203.403C293.97 202.871 293.723 202.254 293.191 202.026L293.092 202.256ZM292.044 202.675L292.274 202.774C292.393 202.496 292.718 202.367 292.993 202.486L293.092 202.256L293.191 202.027C292.663 201.799 292.042 202.044 291.814 202.577L292.044 202.675ZM291.09 204.902L291.32 205L292.274 202.774L292.044 202.675L291.814 202.577L290.86 204.803L291.09 204.902ZM288.647 196.394L288.424 196.508C289.749 199.092 290.579 201.939 290.841 204.923L291.09 204.902L291.339 204.88C291.071 201.831 290.224 198.922 288.869 196.28L288.647 196.394ZM288.647 196.394L288.897 196.391C288.896 196.345 288.893 196.299 288.886 196.253L288.639 196.288L288.391 196.323C288.395 196.348 288.397 196.372 288.397 196.396L288.647 196.394ZM288.639 196.288L288.886 196.253L288.025 190.233L287.778 190.268L287.53 190.304L288.391 196.323L288.639 196.288ZM287.778 190.268L288.025 190.233C287.944 189.66 287.413 189.261 286.839 189.343L286.874 189.591L286.91 189.838C287.21 189.795 287.488 190.004 287.53 190.304L287.778 190.268ZM286.874 189.591L286.839 189.343C286.265 189.425 285.867 189.956 285.949 190.53L286.197 190.494L286.444 190.459C286.401 190.159 286.609 189.881 286.909 189.838L286.874 189.591ZM286.197 190.494L285.949 190.53L286.318 193.107L286.565 193.072L286.813 193.036L286.444 190.459L286.197 190.494ZM279.957 187.134L279.828 187.348C282.421 188.91 284.623 190.909 286.366 193.222L286.565 193.072L286.765 192.921C284.984 190.557 282.734 188.514 280.086 186.92L279.957 187.134ZM278.862 187.406L279.076 187.534C279.232 187.275 279.57 187.192 279.828 187.348L279.957 187.134L280.087 186.92C279.592 186.621 278.946 186.78 278.647 187.277L278.862 187.406ZM279.134 188.502L279.263 188.287C279.003 188.131 278.919 187.794 279.076 187.535L278.862 187.406L278.648 187.277C278.349 187.773 278.508 188.417 279.005 188.716L279.134 188.502ZM285.616 194.481L285.82 194.335C284.11 191.939 281.898 189.875 279.263 188.287L279.134 188.502L279.005 188.716C281.581 190.268 283.743 192.285 285.412 194.626L285.616 194.481ZM285.616 194.481L285.722 194.254L283.071 193.02L282.965 193.246L282.86 193.473L285.51 194.707L285.616 194.481ZM282.965 193.246L283.07 193.019C282.543 192.776 281.922 193.003 281.678 193.527L281.905 193.633L282.131 193.738C282.259 193.465 282.583 193.345 282.86 193.473L282.965 193.246ZM281.905 193.633L281.678 193.527C281.433 194.053 281.661 194.676 282.186 194.921L282.291 194.694L282.397 194.468C282.122 194.34 282.003 194.013 282.131 193.738L281.905 193.633ZM282.291 194.694L282.186 194.921L287.028 197.176L287.134 196.949L287.239 196.723L282.397 194.468L282.291 194.694ZM289.558 205.903L289.807 205.891C289.651 202.667 288.801 199.59 287.355 196.833L287.134 196.949L286.913 197.066C288.325 199.758 289.155 202.763 289.308 205.915L289.558 205.903ZM287.853 203.346L287.645 203.484L289.35 206.042L289.558 205.903L289.766 205.764L288.061 203.207L287.853 203.346ZM286.745 203.124L286.884 203.332C287.137 203.164 287.477 203.232 287.645 203.484L287.853 203.346L288.061 203.207C287.739 202.725 287.089 202.595 286.607 202.916L286.745 203.124ZM286.524 204.231L286.732 204.093C286.564 203.841 286.632 203.5 286.884 203.332L286.745 203.124L286.607 202.916C286.125 203.237 285.995 203.888 286.316 204.37L286.524 204.231ZM289.515 208.717L289.723 208.579L286.732 204.093L286.524 204.231L286.316 204.37L289.307 208.856L289.515 208.717ZM285.676 219.348L285.881 219.491C288.054 216.398 289.445 212.716 289.764 208.737L289.515 208.717L289.265 208.697C288.954 212.585 287.596 216.181 285.472 219.204L285.676 219.348ZM285.407 219.723L285.643 219.803C285.678 219.704 285.74 219.614 285.828 219.546L285.676 219.348L285.524 219.149C285.355 219.279 285.235 219.452 285.17 219.642L285.407 219.723ZM281.575 223.739L281.732 223.934C283.191 222.752 284.495 221.385 285.608 219.871L285.407 219.723L285.205 219.575C284.118 221.055 282.843 222.39 281.417 223.545L281.575 223.739ZM281.575 223.739L281.768 223.899C284.311 220.818 285.841 216.87 285.841 212.572H285.591H285.341C285.341 216.749 283.855 220.586 281.382 223.58L281.575 223.739ZM285.591 212.572H285.841C285.841 209.121 284.874 205.848 283.11 203.057L282.899 203.191L282.688 203.324C284.401 206.035 285.341 209.216 285.341 212.572H285.591ZM282.899 203.191L283.148 203.213L283.442 199.888L283.192 199.866L282.943 199.844L282.65 203.169L282.899 203.191ZM283.192 199.866L283.441 199.888C283.493 199.311 283.066 198.802 282.489 198.751L282.467 199.001L282.445 199.25C282.747 199.276 282.97 199.542 282.943 199.844L283.192 199.866ZM282.467 199.001L282.486 198.751C281.904 198.708 281.404 199.126 281.353 199.704L281.602 199.726L281.851 199.748C281.877 199.448 282.134 199.227 282.449 199.25L282.467 199.001ZM281.602 199.726L281.353 199.704L281.219 201.219L281.468 201.241L281.717 201.263L281.851 199.748L281.602 199.726ZM281.468 201.241L281.659 201.08C280.415 199.612 278.92 198.333 277.206 197.3L277.077 197.514L276.948 197.728C278.615 198.733 280.069 199.977 281.277 201.403L281.468 201.241ZM277.077 197.514L277.206 197.3C276.71 197.002 276.065 197.161 275.767 197.657L275.981 197.786L276.195 197.915C276.351 197.656 276.688 197.572 276.948 197.729L277.077 197.514ZM275.981 197.786L275.767 197.657C275.468 198.153 275.628 198.798 276.124 199.096L276.253 198.882L276.382 198.668C276.122 198.512 276.039 198.175 276.195 197.915L275.981 197.786ZM276.253 198.882L276.124 199.096C279.816 201.321 282.355 204.838 283.316 208.891L283.56 208.833L283.803 208.776C282.811 204.591 280.189 200.961 276.382 198.668L276.253 198.882ZM283.56 208.833L283.653 208.601L282.537 208.155L282.444 208.387L282.351 208.619L283.467 209.065L283.56 208.833ZM282.444 208.387L282.537 208.155C282.004 207.942 281.389 208.2 281.174 208.739L281.406 208.832L281.638 208.925C281.75 208.644 282.073 208.508 282.351 208.619L282.444 208.387ZM281.406 208.832L281.174 208.739C280.959 209.277 281.221 209.887 281.758 210.102L281.851 209.87L281.944 209.638C281.663 209.525 281.526 209.206 281.638 208.925L281.406 208.832ZM281.851 209.87L281.758 210.102L283.792 210.916L283.885 210.684L283.978 210.451L281.944 209.638L281.851 209.87ZM283.885 210.684L283.637 210.712C283.708 211.324 283.744 211.944 283.744 212.572H283.994H284.244C284.244 211.925 284.207 211.285 284.134 210.655L283.885 210.684ZM283.994 212.572H283.744C283.744 214.347 283.448 216.054 282.904 217.646L283.141 217.727L283.377 217.808C283.939 216.164 284.244 214.403 284.244 212.572H283.994ZM283.141 217.727L283.327 217.561L282.532 216.666L282.345 216.832L282.158 216.998L282.954 217.893L283.141 217.727ZM282.345 216.832L282.532 216.666C282.147 216.233 281.484 216.195 281.052 216.579L281.218 216.766L281.384 216.953C281.61 216.752 281.957 216.772 282.158 216.998L282.345 216.832ZM281.218 216.766L281.052 216.579C280.619 216.964 280.58 217.627 280.965 218.06L281.152 217.893L281.339 217.727C281.137 217.501 281.158 217.154 281.384 216.953L281.218 216.766ZM281.152 217.893L280.965 218.06L282.284 219.543L282.471 219.377L282.658 219.211L281.339 217.727L281.152 217.893ZM282.471 219.377L282.245 219.27C281.145 221.595 279.492 223.608 277.456 225.14L277.607 225.34L277.757 225.54C279.857 223.96 281.562 221.882 282.697 219.484L282.471 219.377ZM277.607 225.34L277.807 225.49C279.341 223.447 280.252 220.908 280.252 218.161H280.002H279.752C279.752 220.796 278.879 223.23 277.407 225.19L277.607 225.34ZM280.002 218.161H280.252C280.252 216.379 279.868 214.683 279.179 213.154L278.951 213.256L278.723 213.359C279.384 214.825 279.752 216.451 279.752 218.161H280.002ZM278.951 213.256L279.186 213.343L279.192 213.326L278.957 213.24L278.722 213.153L278.716 213.17L278.951 213.256ZM278.957 213.24L279.192 213.324L279.941 211.228L279.706 211.144L279.47 211.06L278.722 213.156L278.957 213.24ZM279.706 211.144L279.941 211.228C280.137 210.682 279.852 210.082 279.306 209.888L279.222 210.123L279.138 210.358C279.424 210.461 279.572 210.775 279.47 211.059L279.706 211.144ZM279.222 210.123L279.306 209.888C278.761 209.692 278.16 209.978 277.967 210.523L278.202 210.606L278.438 210.69C278.539 210.406 278.853 210.256 279.138 210.358L279.222 210.123ZM278.202 210.606L277.967 210.522L277.679 211.328L277.914 211.412L278.15 211.496L278.438 210.691L278.202 210.606ZM277.914 211.412L278.121 211.271C275.917 208.051 272.214 205.934 268.024 205.934V206.184V206.434C272.041 206.434 275.593 208.464 277.708 211.553L277.914 211.412ZM268.024 206.184V205.934C267.445 205.934 266.976 206.404 266.976 206.983H267.226H267.476C267.476 206.68 267.721 206.434 268.024 206.434V206.184ZM267.226 206.983H266.976C266.976 207.561 267.445 208.031 268.024 208.031V207.781V207.531C267.721 207.531 267.476 207.285 267.476 206.983H267.226ZM268.024 207.781V208.031C268.418 208.031 268.807 208.054 269.189 208.098L269.218 207.849L269.246 207.601C268.845 207.555 268.437 207.531 268.024 207.531V207.781ZM269.218 207.849L269.014 207.704L267.322 210.065L267.525 210.21L267.729 210.356L269.421 207.995L269.218 207.849ZM267.525 210.21L267.322 210.065C266.984 210.535 267.093 211.191 267.563 211.528L267.709 211.325L267.854 211.122C267.608 210.945 267.552 210.602 267.728 210.356L267.525 210.21ZM267.709 211.325L267.563 211.528C267.748 211.66 267.963 211.724 268.173 211.724V211.474V211.224C268.063 211.224 267.951 211.191 267.854 211.121L267.709 211.325ZM268.173 211.474V211.724C268.499 211.724 268.821 211.572 269.026 211.286L268.823 211.141L268.62 210.995C268.513 211.144 268.345 211.224 268.173 211.224V211.474ZM268.823 211.141L269.026 211.286L271.137 208.341L270.933 208.196L270.73 208.05L268.62 210.995L268.823 211.141ZM270.933 208.196L270.863 208.436C275.072 209.666 278.155 213.561 278.155 218.161H278.405H278.655C278.655 213.333 275.419 209.247 271.004 207.956L270.933 208.196ZM278.405 218.161H278.155C278.155 220.235 277.529 222.165 276.455 223.773L276.663 223.911L276.871 224.05C277.997 222.363 278.655 220.338 278.655 218.161H278.405ZM276.663 223.911L276.869 223.77L276.176 222.759L275.97 222.9L275.763 223.041L276.457 224.053L276.663 223.911ZM275.97 222.9L276.176 222.759C275.848 222.281 275.196 222.159 274.718 222.487L274.859 222.693L275.001 222.899C275.251 222.728 275.592 222.791 275.763 223.042L275.97 222.9ZM274.859 222.693L274.718 222.487C274.24 222.815 274.119 223.467 274.445 223.944L274.652 223.803L274.858 223.662C274.687 223.412 274.751 223.071 275 222.899L274.859 222.693ZM274.652 223.803L274.446 223.944L275.42 225.365L275.626 225.224L275.832 225.082L274.858 223.662L274.652 223.803ZM275.626 225.224L275.443 225.053C274.499 226.069 273.349 226.891 272.062 227.452L272.162 227.682L272.262 227.911C273.613 227.321 274.819 226.459 275.809 225.394L275.626 225.224ZM272.162 227.682L272.301 227.474C269.5 225.595 267.439 223.202 266.121 220.318L265.894 220.422L265.667 220.526C267.025 223.499 269.15 225.962 272.023 227.889L272.162 227.682ZM265.894 220.422L266.095 220.571L267.27 218.985L267.069 218.836L266.868 218.687L265.693 220.273L265.894 220.422ZM267.069 218.836L267.27 218.985C267.614 218.52 267.517 217.864 267.052 217.519L266.903 217.719L266.754 217.92C266.997 218.101 267.048 218.444 266.868 218.688L267.069 218.836ZM266.903 217.719L267.051 217.518C266.585 217.175 265.93 217.272 265.585 217.737L265.785 217.886L265.986 218.035C266.167 217.792 266.51 217.74 266.755 217.921L266.903 217.719ZM265.785 217.886L265.585 217.737L265.003 218.521L265.204 218.67L265.405 218.819L265.986 218.035L265.785 217.886ZM265.204 218.67L265.441 218.591C264.784 216.63 264.429 214.465 264.382 212.102L264.132 212.107L263.882 212.112C263.93 214.519 264.292 216.735 264.967 218.75L265.204 218.67ZM264.132 212.107L264.382 212.102C264.33 209.483 264.685 207.103 265.056 205.371C265.241 204.506 265.43 203.804 265.573 203.316C265.645 203.072 265.705 202.882 265.748 202.752C265.769 202.687 265.786 202.637 265.798 202.602C265.803 202.585 265.808 202.572 265.811 202.563C265.813 202.559 265.814 202.555 265.815 202.553C265.816 202.55 265.816 202.549 265.816 202.549L265.581 202.464L265.346 202.379C265.326 202.434 263.775 206.781 263.882 212.112L264.132 212.107ZM265.581 202.464L265.816 202.549C266.013 202.005 265.732 201.404 265.188 201.206L265.102 201.441L265.017 201.676C265.302 201.779 265.449 202.094 265.346 202.379L265.581 202.464ZM265.102 201.441L265.187 201.206C264.645 201.011 264.043 201.288 263.845 201.833L264.08 201.919L264.315 202.004C264.418 201.721 264.733 201.574 265.018 201.676L265.102 201.441ZM264.08 201.919L263.845 201.833C263.819 201.906 263.086 203.986 262.645 207.063L262.892 207.099L263.14 207.134C263.575 204.099 264.297 202.053 264.315 202.004L264.08 201.919ZM262.892 207.099L263.091 206.947L261.473 204.818L261.274 204.969L261.075 205.12L262.693 207.25L262.892 207.099ZM261.274 204.969L261.473 204.818C261.123 204.357 260.466 204.267 260.004 204.617L260.155 204.817L260.306 205.016C260.548 204.832 260.892 204.879 261.074 205.12L261.274 204.969ZM260.155 204.817L260.003 204.618C259.542 204.968 259.454 205.626 259.804 206.086L260.003 205.935L260.202 205.784C260.018 205.543 260.065 205.199 260.306 205.016L260.155 204.817ZM260.003 205.935L259.804 206.086L262.332 209.413L262.531 209.262L262.731 209.111L260.202 205.784L260.003 205.935ZM262.531 209.262L262.332 209.413C262.378 209.473 262.428 209.526 262.483 209.574L262.646 209.384L262.81 209.195C262.781 209.171 262.755 209.143 262.731 209.111L262.531 209.262ZM262.646 209.384L262.397 209.367C262.08 213.787 262.604 219.463 266.041 224.306L266.245 224.161L266.448 224.016C263.106 219.306 262.583 213.764 262.896 209.402L262.646 209.384ZM266.245 224.161L266.198 223.915L265.831 223.985L265.878 224.231L265.925 224.476L266.291 224.407L266.245 224.161ZM265.878 224.231L265.831 223.985C265.263 224.094 264.889 224.642 264.998 225.211L265.244 225.165L265.489 225.118C265.432 224.82 265.628 224.533 265.925 224.476L265.878 224.231ZM265.244 225.165L264.998 225.212C265.094 225.714 265.533 226.064 266.027 226.064V225.814V225.564C265.769 225.564 265.539 225.381 265.489 225.118L265.244 225.165ZM266.027 225.814V226.064C266.092 226.064 266.158 226.058 266.223 226.045L266.178 225.8L266.132 225.554C266.096 225.561 266.061 225.564 266.027 225.564V225.814ZM266.178 225.8L266.224 226.045L267.403 225.821L267.356 225.575L267.31 225.329L266.131 225.554L266.178 225.8ZM267.356 225.575L267.168 225.739C268.012 226.711 268.992 227.636 270.125 228.495L270.276 228.296L270.427 228.097C269.321 227.258 268.367 226.357 267.545 225.411L267.356 225.575ZM270.276 228.296L270.222 228.052C269.541 228.203 268.835 228.285 268.111 228.292L268.113 228.542L268.115 228.792C268.875 228.785 269.616 228.699 270.33 228.54L270.276 228.296ZM268.024 228.542V228.792C268.054 228.792 268.084 228.792 268.114 228.792L268.113 228.542L268.112 228.292C268.083 228.292 268.054 228.292 268.024 228.292V228.542ZM267.935 228.542L267.934 228.792C267.964 228.792 267.994 228.792 268.024 228.792V228.542V228.292C267.995 228.292 267.966 228.292 267.936 228.292L267.935 228.542ZM267.935 228.542L267.937 228.292C264.619 228.263 261.676 226.632 259.846 224.134L259.645 224.282L259.443 224.429C261.361 227.049 264.45 228.762 267.933 228.792L267.935 228.542ZM259.645 224.282L259.844 224.433L260.675 223.337L260.476 223.186L260.277 223.034L259.445 224.13L259.645 224.282ZM260.476 223.186L260.675 223.337C261.026 222.875 260.934 222.217 260.474 221.867L260.322 222.067L260.171 222.266C260.412 222.449 260.46 222.793 260.277 223.034L260.476 223.186ZM260.322 222.067L260.473 221.867C260.01 221.516 259.354 221.609 259.004 222.069L259.203 222.22L259.402 222.371C259.586 222.13 259.929 222.082 260.171 222.266L260.322 222.067ZM259.203 222.22L259.004 222.069L258.55 222.668L258.749 222.819L258.948 222.97L259.403 222.371L259.203 222.22ZM258.749 222.819L258.972 222.707C258.282 221.339 257.894 219.795 257.894 218.161H257.644H257.394C257.394 219.875 257.802 221.496 258.526 222.932L258.749 222.819ZM257.644 218.161H257.894C257.894 216.077 258.522 214.076 259.709 212.373L259.504 212.23L259.299 212.087C258.053 213.874 257.394 215.975 257.394 218.161H257.644ZM259.504 212.23L259.71 212.373C260.04 211.898 259.925 211.245 259.45 210.913L259.306 211.118L259.163 211.323C259.412 211.497 259.473 211.839 259.299 212.088L259.504 212.23ZM259.306 211.118L259.449 210.913C258.973 210.581 258.32 210.698 257.989 211.174L258.194 211.316L258.4 211.459C258.573 211.211 258.913 211.149 259.163 211.323L259.306 211.118ZM258.194 211.316L257.989 211.173C257.611 211.716 257.279 212.284 256.996 212.873L257.221 212.981L257.447 213.089C257.718 212.525 258.036 211.98 258.399 211.459L258.194 211.316ZM257.221 212.981L257.403 212.809L257.157 212.55L256.975 212.722L256.794 212.894L257.04 213.153L257.221 212.981ZM256.975 212.722L257.157 212.55C256.759 212.128 256.095 212.113 255.676 212.509L255.847 212.691L256.019 212.873C256.24 212.664 256.587 212.674 256.794 212.893L256.975 212.722ZM255.847 212.691L255.675 212.509C255.254 212.908 255.237 213.571 255.635 213.992L255.817 213.82L255.998 213.648C255.79 213.428 255.799 213.081 256.019 212.872L255.847 212.691ZM255.817 213.82L255.635 213.991L256.396 214.794L256.577 214.623L256.759 214.451L255.998 213.648L255.817 213.82ZM256.577 214.623L256.338 214.549C255.981 215.709 255.797 216.923 255.797 218.161H256.047H256.297C256.297 216.973 256.473 215.808 256.816 214.696L256.577 214.623ZM256.047 218.161H255.797C255.797 220.908 256.708 223.447 258.242 225.491L258.442 225.34L258.642 225.19C257.17 223.23 256.297 220.796 256.297 218.161H256.047ZM258.442 225.34L258.593 225.141C255.36 222.709 253.093 219.062 252.474 214.886L252.227 214.922L251.979 214.959C252.618 219.27 254.958 223.032 258.292 225.54L258.442 225.34ZM252.227 214.922L252.425 215.075L254.48 212.414L254.283 212.261L254.085 212.109L252.029 214.769L252.227 214.922ZM254.283 212.261L254.48 212.414C254.835 211.956 254.751 211.298 254.292 210.943L254.139 211.141L253.986 211.339C254.226 211.524 254.27 211.869 254.085 212.109L254.283 212.261ZM254.139 211.141L254.293 210.944C253.833 210.587 253.173 210.675 252.821 211.133L253.019 211.285L253.218 211.437C253.401 211.199 253.746 211.153 253.986 211.339L254.139 211.141ZM253.019 211.285L252.822 211.132L251.856 212.381L252.054 212.534L252.252 212.687L253.217 211.438L253.019 211.285ZM252.054 212.534L252.304 212.535C252.323 204.779 258.11 198.108 265.777 197.011L265.742 196.764L265.706 196.516C257.792 197.648 251.823 204.53 251.804 212.533L252.054 212.534ZM265.742 196.764L265.777 197.011C266.35 196.929 266.749 196.398 266.667 195.825L266.419 195.86L266.172 195.896C266.215 196.196 266.006 196.473 265.706 196.516L265.742 196.764ZM266.419 195.86L266.667 195.825C266.585 195.254 266.055 194.849 265.478 194.936L265.516 195.183L265.553 195.43C265.85 195.386 266.129 195.594 266.172 195.896L266.419 195.86ZM265.516 195.183L265.48 194.936C260.485 195.65 256.196 198.449 253.447 202.367L253.651 202.51L253.856 202.654C256.53 198.844 260.699 196.125 265.551 195.431L265.516 195.183ZM253.651 202.51H253.901V200.594H253.651H253.401V202.51H253.651ZM253.651 200.594H253.901C253.901 200.015 253.432 199.546 252.853 199.546V199.796V200.046C253.156 200.046 253.401 200.291 253.401 200.594H253.651ZM252.853 199.796V199.546C252.273 199.546 251.804 200.015 251.804 200.594H252.054H252.304C252.304 200.291 252.55 200.046 252.853 200.046V199.796ZM252.054 200.594H251.804V205.289H252.054H252.304V200.594H252.054ZM252.054 205.289L251.827 205.185C250.786 207.45 250.207 209.957 250.207 212.572H250.457H250.707C250.707 210.031 251.269 207.595 252.281 205.394L252.054 205.289ZM250.457 212.572H250.207C250.207 213.321 250.254 214.059 250.344 214.784L250.592 214.754L250.84 214.723C250.752 214.018 250.707 213.3 250.707 212.572H250.457ZM250.592 214.754L250.343 214.77C250.345 214.812 250.351 214.855 250.359 214.897L250.604 214.85L250.85 214.804C250.846 214.782 250.843 214.759 250.841 214.737L250.592 214.754ZM250.604 214.85L250.356 214.882C250.798 218.279 252.2 221.379 254.28 223.898L254.473 223.739L254.666 223.58C252.644 221.13 251.282 218.118 250.852 214.818L250.604 214.85ZM250.641 219.722L250.44 219.87C251.553 221.385 252.857 222.751 254.316 223.933L254.473 223.739L254.63 223.545C253.205 222.389 251.93 221.054 250.842 219.574L250.641 219.722ZM250.373 219.348L250.221 219.547C250.308 219.614 250.371 219.704 250.405 219.803L250.641 219.722L250.877 219.64C250.813 219.451 250.693 219.279 250.525 219.15L250.373 219.348ZM246.534 208.717L246.285 208.737C246.603 212.717 247.995 216.399 250.168 219.492L250.373 219.348L250.577 219.205C248.453 216.182 247.094 212.585 246.783 208.697L246.534 208.717ZM246.534 208.717L246.742 208.856L249.733 204.37L249.525 204.231L249.317 204.093L246.326 208.579L246.534 208.717ZM249.525 204.231L249.733 204.37C250.054 203.888 249.924 203.237 249.442 202.916L249.303 203.124L249.165 203.332C249.417 203.5 249.485 203.84 249.317 204.093L249.525 204.231ZM249.303 203.124L249.442 202.916C248.959 202.595 248.308 202.724 247.988 203.207L248.196 203.346L248.404 203.484C248.571 203.232 248.911 203.163 249.165 203.332L249.303 203.124ZM248.196 203.346L247.988 203.207L246.283 205.764L246.491 205.903L246.699 206.041L248.404 203.484L248.196 203.346ZM248.932 196.942L248.711 196.825C247.244 199.603 246.398 202.681 246.241 205.891L246.491 205.903L246.741 205.915C246.894 202.778 247.721 199.772 249.153 197.058L248.932 196.942ZM248.932 196.942L249.037 197.168L253.863 194.921L253.757 194.694L253.652 194.468L248.826 196.715L248.932 196.942ZM253.757 194.694L253.863 194.921C254.388 194.676 254.615 194.053 254.371 193.527L254.144 193.633L253.917 193.738C254.046 194.013 253.927 194.34 253.652 194.468L253.757 194.694ZM254.144 193.633L254.371 193.528C254.128 193.003 253.505 192.776 252.979 193.019L253.084 193.246L253.189 193.473C253.465 193.345 253.791 193.465 253.917 193.738L254.144 193.633ZM253.084 193.246L252.978 193.02L250.356 194.241L250.462 194.467L250.567 194.694L253.189 193.473L253.084 193.246ZM252.936 191.583L252.761 191.404C251.834 192.313 250.998 193.289 250.258 194.322L250.462 194.467L250.665 194.613C251.388 193.604 252.205 192.65 253.111 191.761L252.936 191.583ZM252.947 190.454L252.769 190.629C252.981 190.845 252.978 191.192 252.761 191.404L252.936 191.583L253.111 191.761C253.525 191.356 253.531 190.692 253.126 190.279L252.947 190.454ZM251.818 190.442L251.993 190.621C252.211 190.409 252.558 190.413 252.768 190.628L252.947 190.454L253.126 190.279C252.721 189.864 252.057 189.86 251.644 190.263L251.818 190.442ZM249.478 193.107L249.678 193.257C250.375 192.33 251.148 191.449 251.993 190.621L251.818 190.442L251.643 190.263C250.78 191.109 249.991 192.009 249.279 192.956L249.478 193.107ZM249.478 193.107L249.726 193.142L250.1 190.53L249.852 190.494L249.605 190.459L249.231 193.071L249.478 193.107ZM249.852 190.494L250.1 190.53C250.182 189.956 249.783 189.425 249.21 189.343L249.175 189.591L249.139 189.838C249.439 189.881 249.648 190.159 249.605 190.459L249.852 190.494ZM249.175 189.591L249.208 189.343C248.638 189.266 248.105 189.659 248.023 190.233L248.271 190.268L248.518 190.304C248.561 190.006 248.838 189.798 249.141 189.839L249.175 189.591ZM248.271 190.268L248.023 190.233L247.162 196.253L247.41 196.288L247.657 196.323L248.518 190.304L248.271 190.268ZM247.41 196.288L247.162 196.253C247.154 196.31 247.151 196.368 247.152 196.425L247.402 196.419L247.652 196.413C247.651 196.383 247.653 196.353 247.657 196.323L247.41 196.288ZM244.959 204.902L245.208 204.924C245.469 201.965 246.292 199.128 247.624 196.533L247.402 196.419L247.18 196.305C245.817 198.957 244.977 201.857 244.71 204.88L244.959 204.902ZM244.959 204.902L245.189 204.804L244.234 202.577L244.005 202.675L243.775 202.774L244.729 205.001L244.959 204.902ZM244.005 202.675L244.234 202.577C244.006 202.044 243.386 201.798 242.857 202.027L242.957 202.256L243.056 202.486C243.33 202.367 243.655 202.495 243.775 202.774L244.005 202.675ZM242.957 202.256L242.858 202.026C242.326 202.254 242.079 202.871 242.307 203.403L242.537 203.305L242.767 203.206C242.647 202.928 242.776 202.605 243.055 202.486L242.957 202.256ZM242.537 203.305L242.307 203.403L244.703 208.993L244.933 208.894L245.162 208.796L242.767 203.206L242.537 203.305ZM244.933 208.894L244.703 208.992C244.71 209.009 244.717 209.024 244.724 209.04L244.949 208.93L245.174 208.82C245.17 208.812 245.166 208.804 245.162 208.796L244.933 208.894ZM247.36 217.428L247.583 217.315C246.282 214.751 245.449 211.912 245.198 208.909L244.949 208.93L244.7 208.951C244.957 212.019 245.808 214.921 247.138 217.541L247.36 217.428ZM245.184 216.043L245.05 216.254L247.226 217.639L247.36 217.428L247.495 217.217L245.319 215.832L245.184 216.043ZM244.082 216.289L244.293 216.423C244.455 216.167 244.794 216.092 245.051 216.255L245.184 216.043L245.318 215.832C244.829 215.522 244.182 215.665 243.871 216.154L244.082 216.289ZM244.327 217.391L244.461 217.18C244.205 217.017 244.13 216.678 244.293 216.423L244.082 216.289L243.871 216.154C243.56 216.643 243.704 217.291 244.192 217.602L244.327 217.391ZM249.25 220.523L249.384 220.312L244.461 217.18L244.327 217.391L244.192 217.602L249.116 220.734L249.25 220.523ZM256.773 227.217L256.895 226.999C253.957 225.359 251.415 223.09 249.452 220.377L249.25 220.523L249.047 220.67C251.052 223.442 253.649 225.76 256.651 227.436L256.773 227.217ZM256.773 227.217L256.773 226.967L254.165 226.973L254.165 227.223L254.166 227.473L256.774 227.467L256.773 227.217ZM254.165 227.223L254.165 226.973C253.585 226.974 253.117 227.444 253.118 228.023L253.368 228.023L253.618 228.022C253.618 227.719 253.862 227.473 254.166 227.473L254.165 227.223ZM253.368 228.023L253.118 228.023C253.119 228.602 253.588 229.07 254.167 229.07V228.82V228.57C253.864 228.57 253.619 228.325 253.618 228.022L253.368 228.023ZM254.167 228.82V229.07H254.168V228.82V228.57H254.167V228.82ZM254.168 228.82L254.169 229.07L260.25 229.057L260.249 228.807L260.248 228.557L254.168 228.57L254.168 228.82ZM260.249 228.807L260.249 229.057C260.262 229.057 260.275 229.057 260.287 229.056L260.278 228.806L260.269 228.556C260.262 228.557 260.255 228.557 260.249 228.557L260.249 228.807Z" fill="#7F977B"/>
<path d="M309.87 9.92514C317.165 26.6044 309.558 46.0399 292.879 53.3356C276.2 60.6313 256.764 53.0244 249.469 36.3451C242.173 19.6658 249.78 0.230288 266.459 -7.06538C283.138 -14.361 302.574 -6.75413 309.87 9.92514Z" fill="url(#paint0_linear_367_10346)"/>
<path d="M266.548 13.4978C267.671 16.0638 266.501 19.054 263.935 20.1766C261.369 21.2992 258.379 20.1292 257.256 17.5632C256.133 14.9973 257.303 12.0071 259.869 10.8845C262.435 9.76187 265.425 10.9319 266.548 13.4978Z" fill="url(#paint1_linear_367_10346)"/>
<path d="M297.519 0.0706824C298.164 0.81835 298.042 1.79606 297.248 2.25445C296.453 2.71284 295.286 2.47834 294.641 1.73067C293.997 0.983003 294.119 0.00529791 294.913 -0.453095C295.708 -0.911488 296.875 -0.676985 297.519 0.0706824Z" fill="url(#paint2_linear_367_10346)"/>
<path d="M309.166 23.7621C310.169 24.1114 310.591 25.5199 310.108 26.908C309.624 28.2961 308.419 29.1381 307.416 28.7888C306.412 28.4395 305.991 27.031 306.474 25.6429C306.958 24.2548 308.163 23.4128 309.166 23.7621Z" fill="url(#paint3_linear_367_10346)"/>
<path d="M291.079 42.0734C291.787 45.7614 288.814 49.4323 284.439 50.2727C280.063 51.113 275.942 48.8046 275.233 45.1166C274.525 41.4286 277.498 37.7577 281.874 36.9173C286.249 36.0769 290.371 38.3854 291.079 42.0734Z" fill="url(#paint4_linear_367_10346)"/>
<path d="M245.565 27.9943C246.344 27.7569 247.762 30.1446 248.731 33.3274C249.701 36.5103 249.854 39.283 249.074 39.5205C248.295 39.7579 246.877 37.3702 245.908 34.1873C244.938 31.0045 244.785 28.2318 245.565 27.9943Z" fill="url(#paint5_linear_367_10346)"/>
<path d="M246.589 27.6825C247.935 27.2727 249.811 29.5208 250.78 32.7037C251.75 35.8865 251.444 38.7989 250.099 39.2087C248.753 39.6184 246.877 37.3704 245.907 34.1875C244.938 31.0046 245.243 28.0922 246.589 27.6825Z" fill="url(#paint6_linear_367_10346)"/>
<path d="M245.443 29.7075C245.67 29.6385 246.405 31.3895 247.083 33.6187C247.762 35.8479 248.128 37.711 247.902 37.7801C247.675 37.8492 246.94 36.0981 246.262 33.8689C245.583 31.6397 245.217 29.7766 245.443 29.7075Z" fill="#445441"/>
<path d="M273.368 54.9516C273.398 54.5199 276.118 54.2234 279.443 54.2895C282.768 54.3555 285.438 54.759 285.408 55.1907C285.377 55.6224 282.657 55.9189 279.332 55.8528C276.008 55.7868 273.337 55.3833 273.368 54.9516Z" fill="url(#paint7_linear_367_10346)"/>
<path d="M273.408 54.3841C273.461 53.6391 276.199 53.0887 279.523 53.1548C282.848 53.2208 285.501 53.8783 285.448 54.6232C285.395 55.3682 282.657 55.9186 279.333 55.8525C276.008 55.7865 273.355 55.1291 273.408 54.3841Z" fill="url(#paint8_linear_367_10346)"/>
<path d="M274.947 55.3091C274.956 55.1835 276.851 55.1191 279.179 55.1654C281.508 55.2116 283.389 55.351 283.38 55.4766C283.371 55.6022 281.476 55.6665 279.147 55.6203C276.819 55.574 274.938 55.4347 274.947 55.3091Z" fill="#485945"/>
<path d="M307.618 41.6304C306.97 41.3352 307.421 38.9517 308.625 36.3066C309.83 33.6615 311.332 31.7565 311.98 32.0516C312.628 32.3468 312.177 34.7303 310.972 37.3754C309.768 40.0205 308.266 41.9255 307.618 41.6304Z" fill="url(#paint9_linear_367_10346)"/>
<path d="M306.766 41.2428C305.648 40.7335 305.718 38.1764 306.922 35.5313C308.127 32.8862 310.01 31.1548 311.128 31.6641C312.246 32.1733 312.176 34.7304 310.972 37.3755C309.767 40.0206 307.884 41.7521 306.766 41.2428Z" fill="url(#paint10_linear_367_10346)"/>
<path d="M308.687 40.578C308.498 40.4922 309.029 38.9208 309.873 37.0682C310.717 35.2157 311.554 33.7835 311.742 33.8694C311.931 33.9553 311.4 35.5267 310.556 37.3792C309.712 39.2317 308.875 40.6639 308.687 40.578Z" fill="#7B9577"/>
<path d="M307.793 4.91999C307.426 5.1699 306.302 4.1595 305.282 2.66318C304.262 1.16686 303.733 -0.248744 304.099 -0.498661C304.466 -0.748579 305.59 0.261829 306.61 1.75815C307.63 3.25447 308.16 4.67007 307.793 4.91999Z" fill="url(#paint11_linear_367_10346)"/>
<path d="M307.312 5.24827C306.679 5.67951 305.339 4.81613 304.319 3.31985C303.299 1.82357 302.985 0.261001 303.618 -0.170243C304.25 -0.601487 305.59 0.261896 306.61 1.75818C307.63 3.25446 307.944 4.81702 307.312 5.24827Z" fill="url(#paint12_linear_367_10346)"/>
<path d="M307.578 4.01001C307.471 4.08273 306.806 3.29215 306.091 2.24421C305.377 1.19627 304.884 0.287804 304.991 0.215089C305.098 0.142374 305.763 0.93295 306.478 1.98089C307.192 3.02883 307.685 3.9373 307.578 4.01001Z" fill="#4B5E48"/>
<path d="M287.258 18.6998C287.258 20.4503 285.839 21.8693 284.089 21.8693C282.338 21.8693 280.919 20.4503 280.919 18.6998C280.919 16.9493 282.338 15.5303 284.089 15.5303C285.839 15.5303 287.258 16.9493 287.258 18.6998Z" fill="#4D6449"/>
<path d="M259.874 41.8594C259.078 42.545 257.507 42.0256 256.364 40.6994C255.221 39.3732 254.94 37.7423 255.736 37.0568C256.532 36.3713 258.103 36.8907 259.246 38.2169C260.388 39.5431 260.669 41.1739 259.874 41.8594Z" fill="#4D6449"/>
<path d="M303.428 37.2486C304.118 38.04 303.609 39.6145 302.29 40.7653C300.971 41.9162 299.342 42.2076 298.651 41.4162C297.96 40.6248 298.47 39.0503 299.789 37.8995C301.108 36.7486 302.737 36.4572 303.428 37.2486Z" fill="url(#paint13_linear_367_10346)"/>
<path d="M53.7423 160.66C54.1031 160.129 54.3963 157.54 54.5004 156.906C54.812 155.76 55.3948 148.516 55.3948 146.329C55.3948 145.174 55.5022 143.685 55.8748 142.959C56.5336 141.692 57.9792 139.089 59.1588 138.504C58.5031 138.544 56.3573 139.771 55.8748 140.217C55.3229 140.662 54.8114 141.412 54.4674 142.033C54.039 142.781 54.0056 143.605 53.8267 144.448C53.4509 146.217 53.4785 154.026 53.4785 155.609C53.4784 157.191 53.6598 160.633 53.7423 160.66Z" fill="white"/>
<path d="M27.9867 175.44C28.3956 174.177 28.1179 168.759 28.3956 166.538C28.5388 165.392 28.8348 164.22 29.2074 163.494C29.8662 162.227 32.1412 160.62 33.3207 160.036C32.6651 160.076 30.5193 161.303 30.0368 161.749C28.6726 162.849 28.3292 163.738 27.9867 165.352C27.7976 166.244 27.7229 168.806 27.7229 170.388C27.7229 171.97 27.9042 175.412 27.9867 175.44Z" fill="white"/>
<path d="M83.4544 161.969C83.7019 159.84 83.5737 157.562 84.297 155.519C84.7518 154.253 86.3223 152.646 87.1365 152.062C86.6839 152.102 85.2026 153.329 84.8696 153.775C83.763 155.068 83.4544 156.575 83.4544 158.434C83.4544 160.016 83.3975 161.941 83.4544 161.969Z" fill="white"/>
</g>
<path d="M242.715 144.383C242.585 144.375 242.471 144.473 242.462 144.604C242.443 144.875 242.703 145.709 243.245 146.271C243.415 146.446 243.599 146.581 243.795 146.673C243.445 146.851 243.098 146.992 242.703 146.992C242.701 146.992 242.7 146.992 242.699 146.992C242.568 146.992 242.462 147.098 242.461 147.23C242.461 147.361 242.567 147.467 242.698 147.468H242.703C243.323 147.468 243.82 147.201 244.301 146.943C244.716 146.72 245.107 146.51 245.55 146.489C245.681 146.483 245.782 146.371 245.776 146.24C245.77 146.109 245.66 146.008 245.528 146.014C245.119 146.034 244.761 146.174 244.422 146.343C244.129 146.339 243.854 146.21 243.606 145.96C243.135 145.486 242.931 144.76 242.936 144.636C242.945 144.505 242.846 144.392 242.715 144.383Z" fill="#65895F" stroke="#7F977B" stroke-width="0.2"/>
<path d="M243.761 147.854L243.513 148.102C243.42 148.195 243.42 148.345 243.513 148.438C243.559 148.484 243.62 148.508 243.681 148.508C243.741 148.508 243.802 148.484 243.849 148.438L244.097 148.19C244.19 148.097 244.19 147.947 244.097 147.854C244.004 147.761 243.854 147.761 243.761 147.854Z" fill="#65895F" stroke="#7F977B" stroke-width="0.2"/>
<path d="M243.954 151.604C244.082 151.577 244.164 151.45 244.137 151.322C244.109 151.194 243.983 151.112 243.855 151.139C243.506 151.213 243.231 151.206 243.096 151.18C242.95 150.763 242.759 150.349 242.187 150.075C242.069 150.018 241.927 150.068 241.87 150.186C241.813 150.304 241.863 150.446 241.981 150.503C242.441 150.724 242.549 151.042 242.697 151.483C242.839 151.904 243.015 152.429 243.576 152.925C243.621 152.965 243.677 152.984 243.733 152.984C243.799 152.984 243.865 152.957 243.912 152.904C243.998 152.806 243.989 152.656 243.891 152.569C243.555 152.272 243.388 151.97 243.269 151.673C243.29 151.673 243.31 151.674 243.331 151.674C243.52 151.674 243.734 151.651 243.954 151.604Z" fill="#65895F" stroke="#7F977B" stroke-width="0.2"/>
<path d="M246.7 150.794L246.452 151.042C246.36 151.135 246.36 151.285 246.452 151.378C246.499 151.424 246.56 151.447 246.62 151.447C246.681 151.447 246.742 151.424 246.788 151.378L247.037 151.13C247.129 151.037 247.129 150.886 247.037 150.794C246.944 150.701 246.793 150.701 246.7 150.794Z" fill="#65895F" stroke="#7F977B" stroke-width="0.2"/>
<path d="M235.323 147.149C235.513 147.018 235.826 146.925 236.186 146.876C235.842 147.408 235.562 147.984 235.367 148.574C235.325 148.698 235.393 148.833 235.517 148.874C235.542 148.882 235.567 148.886 235.592 148.886C235.692 148.886 235.785 148.823 235.818 148.723C236.038 148.06 236.371 147.415 236.786 146.838C237.337 146.84 237.903 146.94 238.273 147.158C238.311 147.18 238.352 147.191 238.393 147.191C238.475 147.191 238.554 147.149 238.598 147.074C238.665 146.961 238.627 146.815 238.514 146.749C238.148 146.532 237.657 146.413 237.151 146.374C237.271 146.234 237.395 146.099 237.525 145.971C237.72 145.778 237.92 145.584 238.126 145.393C238.163 145.427 238.203 145.461 238.245 145.493C238.474 145.67 238.759 145.805 238.971 145.836C238.983 145.838 238.995 145.839 239.006 145.839C239.122 145.839 239.224 145.754 239.241 145.636C239.26 145.506 239.171 145.385 239.041 145.366C238.907 145.346 238.672 145.236 238.482 145.073C238.926 144.685 239.397 144.322 239.904 144.025C239.949 143.999 239.994 143.973 240.04 143.948C240.307 144.1 240.574 144.299 240.756 144.539C240.832 144.64 240.888 144.742 240.925 144.844C240.926 144.848 240.927 144.852 240.929 144.856C240.986 145.025 240.989 145.196 240.939 145.373C240.903 145.499 240.977 145.631 241.103 145.666C241.125 145.673 241.147 145.675 241.168 145.675C241.272 145.675 241.367 145.607 241.396 145.502C241.462 145.271 241.465 145.039 241.41 144.814C241.452 144.76 241.518 144.681 241.575 144.614C241.878 144.255 242.322 143.727 242.466 143.224C242.593 143.216 242.722 143.212 242.851 143.212C243.763 143.212 244.601 143.432 245.404 143.772C245.069 143.985 244.778 144.256 244.537 144.479L244.478 144.535C244.381 144.624 244.376 144.774 244.465 144.871C244.512 144.921 244.575 144.947 244.639 144.947C244.697 144.947 244.755 144.926 244.801 144.883L244.861 144.827C245.177 144.533 245.537 144.199 245.938 144.017C246.52 144.304 247.088 144.645 247.658 145C247.904 145.153 248.135 145.331 248.349 145.532C248.147 145.699 247.95 145.893 247.763 146.109C247.472 145.776 246.938 145.369 246.432 145.211C246.307 145.172 246.174 145.242 246.135 145.367C246.095 145.492 246.165 145.625 246.291 145.664C246.815 145.829 247.298 146.28 247.462 146.488C246.912 147.25 246.629 148.063 246.681 148.752C246.69 148.877 246.794 148.972 246.917 148.972C246.923 148.972 246.929 148.972 246.936 148.971C247.066 148.961 247.164 148.847 247.155 148.716C247.107 148.084 247.428 147.275 248.013 146.551C248.222 146.292 248.449 146.064 248.679 145.877C248.987 146.232 249.253 146.644 249.475 147.11C249.532 147.229 249.673 147.279 249.792 147.222C249.91 147.166 249.961 147.024 249.904 146.906C249.671 146.416 249.392 145.98 249.069 145.601C249.326 145.446 249.579 145.348 249.806 145.322C249.936 145.307 250.03 145.189 250.015 145.059C250 144.928 249.882 144.835 249.752 144.85C249.43 144.887 249.083 145.026 248.738 145.247C248.484 145 248.207 144.782 247.909 144.596C247.523 144.356 247.137 144.121 246.746 143.905C246.809 143.917 246.872 143.934 246.936 143.957C247.059 144.003 247.196 143.939 247.241 143.816C247.286 143.693 247.223 143.557 247.1 143.511C246.689 143.361 246.308 143.383 245.96 143.499C244.997 143.045 243.984 142.737 242.851 142.737C242.73 142.737 242.611 142.74 242.494 142.746C242.483 142.695 242.467 142.644 242.444 142.594C242.389 142.475 242.248 142.423 242.129 142.478C242.01 142.533 241.958 142.673 242.012 142.792C241.286 142.889 240.636 143.109 240.041 143.41C239.653 143.222 239.293 143.124 239.126 143.124C238.995 143.124 238.889 143.231 238.889 143.362C238.889 143.493 238.995 143.599 239.126 143.599C239.19 143.599 239.335 143.635 239.518 143.704C239.051 143.991 238.617 144.325 238.206 144.682C238.198 144.654 238.192 144.626 238.189 144.597C238.176 144.467 238.06 144.371 237.929 144.384C237.798 144.398 237.703 144.514 237.716 144.645C237.729 144.773 237.768 144.898 237.831 145.018C237.613 145.22 237.4 145.426 237.191 145.633C236.962 145.86 236.746 146.106 236.547 146.365C235.941 146.394 235.378 146.534 235.053 146.758C234.945 146.832 234.918 146.98 234.993 147.088C235.067 147.196 235.215 147.224 235.323 147.149ZM241.939 143.283C241.764 143.653 241.403 144.08 241.212 144.307C241.205 144.316 241.198 144.324 241.191 144.332C241.173 144.305 241.154 144.279 241.135 144.253C240.973 144.039 240.763 143.854 240.539 143.699C240.994 143.498 241.458 143.359 241.939 143.283Z" fill="#65895F" stroke="#7F977B" stroke-width="0.2"/>
<path d="M247.945 151.001C247.956 151.003 247.967 151.004 247.979 151.004C248.095 151.004 248.196 150.918 248.213 150.8C248.246 150.574 248.164 150.345 247.978 150.138C247.862 150.008 247.629 149.818 247.458 149.818C247.456 149.818 247.453 149.818 247.451 149.818C247.32 149.822 247.217 149.932 247.221 150.063C247.225 150.178 247.309 150.271 247.418 150.29C247.502 150.329 247.771 150.537 247.743 150.732C247.724 150.862 247.815 150.983 247.945 151.001Z" fill="#65895F" stroke="#7F977B" stroke-width="0.2"/>
<path d="M238.937 150.224C238.611 150.322 238.035 150.887 237.947 151.107C237.899 151.229 237.958 151.367 238.08 151.416C238.109 151.428 238.139 151.433 238.168 151.433C238.261 151.433 238.349 151.378 238.387 151.287C238.454 151.158 238.904 150.73 239.074 150.679C239.199 150.641 239.271 150.509 239.233 150.383C239.195 150.257 239.062 150.186 238.937 150.224Z" fill="#65895F" stroke="#7F977B" stroke-width="0.2"/>
<path d="M240.205 154.162C240.539 154.565 240.917 155.023 241.611 155.351C241.644 155.367 241.679 155.374 241.713 155.374C241.802 155.374 241.887 155.324 241.928 155.238C241.984 155.119 241.933 154.978 241.814 154.922C241.418 154.734 241.141 154.497 240.907 154.247C240.958 154.235 241.011 154.221 241.065 154.207C241.575 154.073 242.21 153.907 242.488 154.242C242.535 154.298 242.603 154.327 242.671 154.327C242.725 154.327 242.778 154.309 242.823 154.273C242.924 154.189 242.938 154.039 242.854 153.938C242.382 153.37 241.551 153.588 240.945 153.747C240.801 153.784 240.664 153.82 240.555 153.839C240.098 153.287 239.618 152.721 238.41 152.636C238.279 152.627 238.165 152.726 238.156 152.857C238.147 152.988 238.245 153.101 238.376 153.11C239.396 153.182 239.753 153.614 240.205 154.162Z" fill="#65895F" stroke="#7F977B" stroke-width="0.2"/>
<path d="M251.138 151.631C251.071 151.518 250.926 151.48 250.813 151.547C250.772 151.571 250.698 151.616 250.603 151.676C250.645 151.315 250.668 150.941 250.668 150.554C250.668 150.215 250.651 149.882 250.618 149.556C250.803 149.221 250.918 148.863 250.864 148.459C250.846 148.329 250.726 148.237 250.596 148.255C250.517 148.266 250.453 148.314 250.418 148.38C250.386 148.246 250.351 148.114 250.312 147.983C250.275 147.857 250.143 147.785 250.017 147.822C249.891 147.859 249.819 147.991 249.856 148.117C249.982 148.544 250.073 148.99 250.128 149.451C250.016 149.631 249.881 149.811 249.743 149.995C249.738 150.002 249.732 150.01 249.727 150.017C249.69 149.97 249.649 149.919 249.604 149.862C249.232 149.397 248.61 148.618 248.838 148.014C248.885 147.891 248.823 147.754 248.7 147.707C248.578 147.661 248.44 147.723 248.394 147.846C248.07 148.703 248.797 149.614 249.232 150.158C249.302 150.246 249.384 150.349 249.434 150.42C249.231 150.717 249.054 151.033 248.971 151.391C248.941 151.519 249.021 151.646 249.149 151.676C249.167 151.68 249.185 151.682 249.203 151.682C249.311 151.682 249.409 151.608 249.434 151.498C249.535 151.064 249.834 150.665 250.124 150.28C250.144 150.253 250.165 150.225 250.186 150.197C250.19 150.315 250.192 150.434 250.192 150.554C250.192 151.068 250.152 151.557 250.073 152.019C249.659 152.297 249.211 152.623 249.097 152.799C249.025 152.91 249.057 153.057 249.167 153.128C249.207 153.154 249.252 153.166 249.296 153.166C249.374 153.166 249.45 153.128 249.495 153.058C249.532 153.004 249.695 152.871 249.922 152.705C249.8 153.148 249.639 153.562 249.437 153.944C249.335 154.135 249.223 154.319 249.102 154.494C248.713 154.611 248.347 154.612 247.998 154.501C247.469 154.332 247.022 153.923 246.643 153.493C247.132 153.379 247.657 153.31 248.167 153.259C248.297 153.246 248.392 153.129 248.379 152.999C248.366 152.868 248.249 152.773 248.119 152.786C246.651 152.933 245.053 153.228 244.336 154.301C244.264 154.41 244.293 154.558 244.402 154.631C244.443 154.658 244.488 154.671 244.534 154.671C244.611 154.671 244.686 154.634 244.732 154.565C245.03 154.119 245.537 153.828 246.137 153.633C246.589 154.173 247.144 154.727 247.853 154.954C248.075 155.025 248.3 155.06 248.529 155.06C248.57 155.06 248.611 155.059 248.653 155.057C248.21 155.541 247.675 155.949 247.05 156.277C246.907 156.352 246.763 156.43 246.616 156.511C246.219 156.407 245.784 156.189 245.446 155.991C245.64 155.931 245.841 155.857 246.048 155.764C246.167 155.71 246.221 155.569 246.167 155.449C246.113 155.33 245.972 155.277 245.853 155.33C245.197 155.626 244.583 155.715 244.09 155.788C243.651 155.852 243.272 155.907 242.991 156.085C242.88 156.155 242.847 156.302 242.917 156.413C242.962 156.485 243.039 156.524 243.118 156.524C243.162 156.524 243.206 156.512 243.245 156.487C243.44 156.363 243.757 156.317 244.158 156.258C244.358 156.229 244.576 156.197 244.809 156.151C244.954 156.248 245.265 156.449 245.64 156.636C245.782 156.707 245.919 156.769 246.05 156.821C245.029 157.377 243.974 157.896 242.85 157.896C241.889 157.896 241.018 157.756 240.246 157.478C240.283 157.275 240.298 157.069 240.288 156.861C240.39 156.845 240.503 156.818 240.632 156.787C240.987 156.701 241.429 156.593 241.791 156.719C241.915 156.762 242.05 156.696 242.093 156.572C242.136 156.448 242.071 156.313 241.947 156.27C241.453 156.099 240.914 156.229 240.52 156.325C240.427 156.347 240.314 156.375 240.227 156.389C240.182 156.183 240.115 155.975 240.024 155.769C239.737 155.113 239.277 154.62 239.099 154.484C238.994 154.404 238.845 154.424 238.766 154.528C238.686 154.632 238.706 154.781 238.81 154.861C238.884 154.917 239.315 155.335 239.589 155.959C239.689 156.188 239.756 156.415 239.791 156.639C239.792 156.652 239.793 156.665 239.796 156.677C239.825 156.886 239.825 157.092 239.796 157.296C239.486 157.156 239.194 156.991 238.921 156.801C238.814 156.726 238.666 156.753 238.591 156.861C238.516 156.969 238.543 157.117 238.65 157.192C238.97 157.414 239.313 157.605 239.678 157.764C239.628 157.901 239.565 158.036 239.488 158.17C239.423 158.284 239.462 158.429 239.576 158.494C239.613 158.516 239.654 158.526 239.694 158.526C239.776 158.526 239.856 158.483 239.9 158.406C239.988 158.253 240.062 158.097 240.12 157.938C240.934 158.225 241.847 158.371 242.85 158.371C244.222 158.371 245.498 157.669 246.623 157.049C246.645 157.037 246.667 157.025 246.689 157.013C246.812 157.035 246.929 157.047 247.039 157.047C247.155 157.047 247.263 157.034 247.364 157.009C247.491 156.976 247.568 156.847 247.535 156.72C247.522 156.669 247.494 156.627 247.457 156.596C248.244 156.153 248.894 155.584 249.397 154.898C249.752 154.769 250.118 154.564 250.5 154.28C250.605 154.202 250.627 154.053 250.549 153.948C250.471 153.843 250.322 153.821 250.217 153.899C250.1 153.985 249.986 154.064 249.873 154.134C250.162 153.579 250.373 152.967 250.505 152.3C250.687 152.181 250.875 152.062 251.054 151.956C251.167 151.89 251.205 151.744 251.138 151.631Z" fill="#65895F" stroke="#7F977B" stroke-width="0.2"/>
<path d="M237.346 155.066C237.46 154.728 237.614 154.441 237.788 154.249C237.876 154.151 237.868 154.001 237.771 153.913C237.673 153.825 237.523 153.833 237.435 153.93C237.289 154.091 237.164 154.292 237.059 154.51C236.923 154.243 236.775 153.974 236.63 153.712C236.239 153.004 235.839 152.279 235.639 151.514C235.713 151.26 235.805 151.041 235.912 150.85C235.918 150.857 235.924 150.863 235.932 150.87C236.275 151.22 236.989 151.947 236.989 152.496C236.989 152.627 237.095 152.733 237.227 152.733C237.358 152.733 237.464 152.627 237.464 152.496C237.464 151.753 236.688 150.962 236.271 150.537C236.242 150.508 236.212 150.478 236.185 150.45C236.535 150.027 236.981 149.756 237.474 149.457C237.561 149.404 237.648 149.351 237.737 149.296C237.848 149.227 237.882 149.08 237.813 148.969C237.744 148.857 237.598 148.823 237.486 148.892C237.399 148.946 237.313 148.999 237.227 149.051C236.662 149.394 236.113 149.727 235.695 150.308C235.693 150.31 235.691 150.313 235.69 150.315C235.689 150.317 235.688 150.318 235.687 150.32C235.625 150.407 235.565 150.5 235.51 150.599C235.509 150.584 235.509 150.569 235.509 150.553C235.509 150.293 235.529 150.026 235.568 149.76C235.587 149.63 235.498 149.51 235.368 149.49C235.238 149.471 235.117 149.561 235.098 149.691C235.055 149.98 235.034 150.27 235.034 150.553C235.034 150.884 235.076 151.204 235.148 151.514C235.041 151.926 234.971 152.413 234.95 153C234.946 153.131 235.048 153.241 235.179 153.246C235.182 153.246 235.185 153.246 235.188 153.246C235.315 153.246 235.421 153.146 235.425 153.017C235.432 152.819 235.445 152.634 235.463 152.46C235.677 152.97 235.948 153.459 236.214 153.941C236.399 154.277 236.574 154.593 236.728 154.912C236.761 154.981 236.796 155.05 236.832 155.117C236.656 155.735 236.629 156.355 236.767 156.608C236.81 156.687 236.892 156.732 236.976 156.732C237.014 156.732 237.053 156.722 237.089 156.703C237.205 156.64 237.247 156.495 237.184 156.38C237.154 156.322 237.133 156.078 237.189 155.712C237.367 155.973 237.563 156.217 237.776 156.441C237.822 156.49 237.885 156.515 237.948 156.515C238.007 156.515 238.065 156.494 238.111 156.45C238.207 156.359 238.21 156.209 238.12 156.114C237.826 155.804 237.567 155.453 237.346 155.066Z" fill="#65895F" stroke="#7F977B" stroke-width="0.2"/>
<path d="M244.374 150.517C244.536 150.679 244.748 150.76 244.961 150.76C245.173 150.76 245.386 150.679 245.548 150.517L245.852 150.213C245.928 150.137 245.969 150.037 245.969 149.93C245.969 149.824 245.928 149.723 245.852 149.648L245.243 149.039C245.168 148.963 245.067 148.922 244.961 148.922C244.854 148.922 244.754 148.963 244.678 149.039L244.374 149.343C244.05 149.667 244.05 150.193 244.374 150.517L244.374 150.517ZM244.71 149.679L244.961 149.429L245.462 149.93L245.212 150.181C245.073 150.319 244.848 150.319 244.71 150.181C244.572 150.043 244.572 149.818 244.71 149.679Z" fill="#65895F" stroke="#7F977B" stroke-width="0.2"/>
<path d="M236.562 148.108C236.468 148.198 236.465 148.349 236.556 148.444C236.602 148.492 236.665 148.517 236.727 148.517C236.786 148.517 236.845 148.495 236.892 148.45C237.03 148.317 237.311 148.258 237.476 148.288C237.605 148.311 237.729 148.226 237.752 148.096C237.775 147.967 237.69 147.844 237.561 147.82C237.275 147.769 236.829 147.852 236.562 148.108Z" fill="#65895F" stroke="#7F977B" stroke-width="0.2"/>
<path d="M240.997 152.673C241.043 152.721 241.105 152.745 241.167 152.745C241.227 152.745 241.286 152.723 241.333 152.678C241.427 152.587 241.429 152.436 241.337 152.342C241.101 152.099 240.589 150.872 240.886 150.145C241.065 149.705 241.136 148.924 241.071 148.106C241.038 147.687 240.915 146.663 240.498 146.199C240.41 146.102 240.26 146.094 240.162 146.182C240.064 146.269 240.057 146.42 240.144 146.517C240.363 146.761 240.537 147.384 240.597 148.143C240.629 148.54 240.626 148.931 240.593 149.264C240.146 148.496 239.471 148.205 239.069 148.032C238.975 147.992 238.894 147.957 238.839 147.926C238.724 147.862 238.579 147.904 238.515 148.018C238.452 148.133 238.493 148.278 238.608 148.341C238.684 148.384 238.775 148.423 238.881 148.468C239.367 148.678 240.097 148.992 240.415 150.047C240.096 150.983 240.651 152.317 240.997 152.673Z" fill="#65895F" stroke="#7F977B" stroke-width="0.2"/>
<path d="M206.445 147.891C208.162 146.658 210.105 146.524 212.066 146.922C213.786 147.272 215.509 148.027 217.089 148.8L217.757 149.131L217.758 149.132C219.561 150.019 221.431 150.665 223.429 151.118L224.293 151.3C225.788 151.588 226.882 151.371 227.841 150.836C228.789 150.308 229.599 149.469 230.529 148.54C230.815 148.254 231.058 148.248 231.177 148.31C231.286 148.367 231.368 148.523 231.256 148.763C230.057 150.599 228.561 151.658 226.84 152.045C225.219 152.41 223.382 152.183 221.384 151.419L220.982 151.259C219.864 150.797 218.733 150.212 217.581 149.633C216.432 149.056 215.265 148.484 214.084 148.054C211.794 147.22 209.435 146.913 207.037 148.134L206.806 148.257L206.799 148.261C206.634 148.363 206.478 148.307 206.396 148.206C206.354 148.154 206.336 148.096 206.34 148.046C206.343 148.012 206.358 147.972 206.397 147.932L206.443 147.892L206.445 147.891Z" fill="#65895F" stroke="#7F977B" stroke-width="0.3"/>
<path d="M194.382 137.729C194.432 137.742 194.473 137.767 194.502 137.807L194.529 137.853L194.531 137.857C195.435 139.799 196.611 141.451 198.133 142.576C199.658 143.702 201.522 144.293 203.784 144.125L203.783 144.124C207.727 143.856 211.408 142.385 215.049 141.193L215.05 141.194C218.47 140.098 222.005 139.224 225.308 139.389C228.5 139.548 231.477 140.677 233.928 143.523L234.164 143.804C234.405 144.099 234.329 144.46 234.109 144.673C234 144.779 233.861 144.84 233.719 144.839C233.615 144.839 233.498 144.805 233.379 144.714L233.26 144.605C230.58 141.323 227.173 140.442 223.488 140.668C219.811 140.894 215.837 142.223 212.012 143.367C208.173 144.515 204.489 145.474 201.346 145.006C199.78 144.773 198.351 144.185 197.105 143.088C195.936 142.059 194.919 140.575 194.104 138.499L193.944 138.075L193.941 138.067L193.925 138.018C193.917 137.971 193.929 137.93 193.953 137.892C193.988 137.836 194.054 137.784 194.139 137.751C194.224 137.719 194.312 137.711 194.382 137.729Z" fill="#65895F" stroke="#7F977B" stroke-width="0.3"/>
<path d="M251.651 155.657C251.16 156.851 249.606 158.553 247.463 159.42C246.538 159.794 246.673 160.391 247.152 160.336C248.706 160.156 250.98 158.504 251.994 156.639C253.044 154.709 252.457 153.694 251.651 155.657Z" fill="#65895F" stroke="#7F977B" stroke-width="0.2"/>
<path d="M242.465 160.385C241.406 160.431 239.678 159.937 238.452 158.804C237.923 158.315 237.49 158.586 237.656 158.882C238.195 159.841 240.068 160.82 241.786 160.91C243.563 161.004 244.206 160.31 242.465 160.385Z" fill="#65895F" stroke="#7F977B" stroke-width="0.2"/>
<defs>
<linearGradient id="paint0_linear_367_10346" x1="262.808" y1="-15.6115" x2="292.879" y2="53.3356" gradientUnits="userSpaceOnUse">
<stop stop-color="#65895F"/>
<stop offset="1" stop-color="#7F977B"/>
</linearGradient>
<linearGradient id="paint1_linear_367_10346" x1="261.092" y1="10.5858" x2="263.288" y2="20.3457" gradientUnits="userSpaceOnUse">
<stop stop-color="#668361"/>
<stop offset="1" stop-color="#445441"/>
</linearGradient>
<linearGradient id="paint2_linear_367_10346" x1="295.784" y1="-0.647477" x2="296.381" y2="2.44785" gradientUnits="userSpaceOnUse">
<stop stop-color="#32187C"/>
<stop offset="1" stop-color="#302EA7"/>
</linearGradient>
<linearGradient id="paint3_linear_367_10346" x1="307.969" y1="23.7484" x2="309.367" y2="28.5843" gradientUnits="userSpaceOnUse">
<stop stop-color="#799475"/>
<stop offset="1" stop-color="#445441"/>
</linearGradient>
<linearGradient id="paint4_linear_367_10346" x1="281.874" y1="36.9173" x2="284.439" y2="50.2726" gradientUnits="userSpaceOnUse">
<stop stop-color="#668361"/>
<stop offset="1" stop-color="#445441"/>
</linearGradient>
<linearGradient id="paint5_linear_367_10346" x1="246.96" y1="28.1237" x2="252.019" y2="36.8854" gradientUnits="userSpaceOnUse">
<stop stop-color="#445441"/>
<stop offset="1" stop-color="#708F6B"/>
</linearGradient>
<linearGradient id="paint6_linear_367_10346" x1="247.864" y1="27.7807" x2="252.165" y2="37.6553" gradientUnits="userSpaceOnUse">
<stop stop-color="#445441"/>
<stop offset="1" stop-color="#668361"/>
</linearGradient>
<linearGradient id="paint7_linear_367_10346" x1="278.426" y1="54.3002" x2="278.473" y2="55.8976" gradientUnits="userSpaceOnUse">
<stop stop-color="#445441"/>
<stop offset="1" stop-color="#7B9577"/>
</linearGradient>
<linearGradient id="paint8_linear_367_10346" x1="278.466" y1="53.1835" x2="278.604" y2="55.9142" gradientUnits="userSpaceOnUse">
<stop stop-color="#445441"/>
<stop offset="1" stop-color="#668361"/>
</linearGradient>
<linearGradient id="paint9_linear_367_10346" x1="309.403" y1="32.1429" x2="312.982" y2="40.3183" gradientUnits="userSpaceOnUse">
<stop stop-color="#7A9475"/>
<stop offset="1" stop-color="#445441"/>
</linearGradient>
<linearGradient id="paint10_linear_367_10346" x1="308.472" y1="31.6981" x2="311.674" y2="40.3783" gradientUnits="userSpaceOnUse">
<stop stop-color="#445441"/>
<stop offset="1" stop-color="#668361"/>
</linearGradient>
<linearGradient id="paint11_linear_367_10346" x1="305.632" y1="-0.467387" x2="307.224" y2="4.58512" gradientUnits="userSpaceOnUse">
<stop stop-color="#32187C"/>
<stop offset="1" stop-color="#302EA7"/>
</linearGradient>
<linearGradient id="paint12_linear_367_10346" x1="305.117" y1="-0.210177" x2="306.651" y2="5.04307" gradientUnits="userSpaceOnUse">
<stop stop-color="#32187C"/>
<stop offset="1" stop-color="#302EA7"/>
</linearGradient>
<linearGradient id="paint13_linear_367_10346" x1="300.608" y1="36.867" x2="301.642" y2="41.7616" gradientUnits="userSpaceOnUse">
<stop stop-color="#789373"/>
<stop offset="1" stop-color="#445441"/>
</linearGradient>
</defs>
</svg>
