<svg width="341" height="241" viewBox="0 0 341 241" fill="none" xmlns="http://www.w3.org/2000/svg">
<path d="M329.89 75.0348C314.27 46.5625 279.359 28.8884 247.833 36.6848C230.658 40.9528 215.628 51.8764 198.303 55.468C183.6 58.4552 168.312 55.9798 155.303 48.5054C136.287 37.4904 124.148 16.8027 104.578 6.81607C77.6073 -6.96634 42.4927 4.49688 23.1649 27.8131C-22.6061 83.0294 5.28331 162.533 56.146 202.754C81.9488 223.158 96.7755 230.225 134.078 238.54C165.764 245.636 219.66 235.306 250.679 225.69C281.698 216.074 310.219 196.275 326.533 168.184C342.848 140.093 345.518 103.504 329.89 75.0348Z" fill="#F1F1F1"/>
<mask id="mask0_367_10098" style="mask-type:alpha" maskUnits="userSpaceOnUse" x="0" y="0" width="341" height="241">
<path d="M329.89 75.0348C314.27 46.5625 279.359 28.8884 247.833 36.6848C230.658 40.9528 215.628 51.8764 198.303 55.468C183.6 58.4552 168.312 55.9798 155.303 48.5054C136.287 37.4904 124.148 16.8027 104.578 6.81607C77.6073 -6.96634 42.4927 4.49688 23.1649 27.8131C-22.6061 83.0294 5.28331 162.533 56.146 202.754C81.9488 223.158 96.7755 230.225 134.078 238.54C165.764 245.636 219.66 235.306 250.679 225.69C281.698 216.074 310.219 196.275 326.533 168.184C342.848 140.093 345.518 103.504 329.89 75.0348Z" fill="#F1F1FA"/>
</mask>
<g mask="url(#mask0_367_10098)">
<path d="M243.036 207.022L246.743 208.536L29.4979 268.827C-34.6128 262.017 -157.154 240.426 -134.433 208.536C-106.031 168.675 -74.1422 144.758 0.598267 144.758C90.5476 144.758 102.54 149.655 243.036 207.022Z" fill="#CCD5CA"/>
<path d="M267.877 179.585C306.923 179.585 338.377 188.239 371.458 229.888L265.708 278.568C195.931 271.176 96.7247 279.109 121.454 244.492C152.365 201.221 186.531 179.585 267.877 179.585Z" fill="#CCD5CA" stroke="#F1F1F1" stroke-width="3.98616"/>
<path d="M117.612 121.873C117.612 122.256 117.499 122.63 117.286 122.948C117.073 123.266 116.77 123.514 116.416 123.66C116.062 123.806 115.673 123.844 115.298 123.769C114.922 123.693 114.578 123.508 114.308 123.237C114.038 122.966 113.854 122.62 113.781 122.244C113.707 121.869 113.747 121.48 113.894 121.126C114.042 120.773 114.291 120.472 114.611 120.26C114.93 120.049 115.305 119.937 115.688 119.939C115.941 119.939 116.192 119.989 116.426 120.086C116.66 120.184 116.873 120.326 117.052 120.506C117.231 120.686 117.372 120.899 117.468 121.133C117.565 121.368 117.613 121.619 117.612 121.873V121.873Z" fill="#7F977B"/>
<path d="M126.86 114.284C127.928 114.284 128.793 113.418 128.793 112.35C128.793 111.282 127.928 110.417 126.86 110.417C125.792 110.417 124.926 111.282 124.926 112.35C124.926 113.418 125.792 114.284 126.86 114.284Z" fill="#7F977B"/>
<path d="M100.758 145.711C100.759 146.094 100.647 146.469 100.436 146.788C100.225 147.107 99.9233 147.357 99.5701 147.504C99.2169 147.652 98.8278 147.692 98.4521 147.618C98.0763 147.545 97.7309 147.361 97.4595 147.091C97.1882 146.821 97.0031 146.477 96.9277 146.101C96.8523 145.726 96.8901 145.336 97.0362 144.983C97.1823 144.629 97.4301 144.326 97.7484 144.113C98.0666 143.9 98.4408 143.787 98.8237 143.787C99.0772 143.785 99.3285 143.834 99.563 143.931C99.7976 144.027 100.011 144.168 100.191 144.347C100.37 144.526 100.513 144.739 100.61 144.973C100.707 145.207 100.758 145.458 100.758 145.711Z" fill="#7F977B"/>
<path d="M4.59198 190.017C2.8843 189.99 1.19744 190.382 -0.321106 191.156L-0.621887 191.315L-0.624817 191.317C-4.07652 193.294 -5.92422 197.387 -6.06134 203.104L-6.06915 203.661V203.662C-6.06915 212.259 -3.40355 218.926 2.24725 223.884L2.34003 223.965L2.45331 223.92C6.9176 222.144 11.1154 219.76 14.9279 216.836C16.663 215.521 18.0788 213.831 19.0685 211.892C19.9964 210.074 20.5276 208.08 20.6291 206.045L20.6437 205.637V205.633C20.6437 200.433 17.7972 195.602 12.9621 192.594L12.4885 192.308C10.252 190.955 7.71894 190.176 5.11444 190.036L4.59296 190.017H4.59198ZM122.422 147.03C121.309 124.726 108.477 102.934 89.6105 91.1924L88.7072 90.6406C72.1827 80.7315 51.0905 77.9103 29.2228 82.6416L28.1808 82.873C14.5822 85.9632 -3.87881 93.2313 -15.0438 110.332L-15.5701 111.153C-21.5516 120.687 -23.732 131.367 -23.1834 141.038C-22.6522 150.403 -19.5603 158.839 -14.8631 164.373L-14.4041 164.899C-10.8434 168.87 -5.66227 170.123 -0.0515747 170.114C4.85748 170.106 10.1275 169.131 14.9846 168.136L17.0383 167.711L20.592 166.978L20.593 166.979C23.5166 166.397 28.6557 164.575 34.7062 162.179C40.7625 159.78 47.7494 156.799 54.3771 153.888C61.0052 150.977 67.2756 148.135 71.9006 146.019C74.2131 144.96 76.1148 144.083 77.4435 143.468C78.1075 143.16 78.6286 142.919 78.9865 142.753C79.1284 142.687 79.245 142.633 79.3342 142.592L80.2277 145.954C80.2128 145.961 80.1971 145.968 80.1808 145.976C80.0696 146.027 79.916 146.098 79.7238 146.188C79.3394 146.369 78.7966 146.626 78.1154 146.949C76.7524 147.596 74.8338 148.508 72.5158 149.603C67.8795 151.791 61.6449 154.71 55.0617 157.693C48.4782 160.677 41.5466 163.727 35.5168 166.178C29.8587 168.478 25.009 170.245 21.9846 170.942L21.4035 171.067C20.8346 171.177 20.2568 171.295 19.6711 171.416L17.8908 171.792C11.9292 173.044 5.24818 174.442 -1.03595 174.313C-7.11948 174.189 -12.8048 172.633 -17.0955 168.146L-17.5067 167.702C-23.6127 160.89 -27.1035 151.143 -27.3738 140.151L-27.3904 139.084C-27.4604 128.465 -24.5902 118.032 -19.0975 108.943L-19.0984 108.942C-7.22474 90.066 12.6478 82.1393 27.2619 78.79L27.2609 78.7891C50.5623 73.5012 73.1462 76.4324 90.8478 87.0146V87.0156C111 99.1612 124.869 122.089 126.483 145.662L126.55 146.785L126.551 146.791C126.65 148.004 127.876 165.486 118.522 185.273C113.084 196.754 105.073 206.819 95.1164 214.69L94.1467 215.445V215.446C81.3812 225.333 65.1068 232.375 45.7082 236.484L43.8215 236.873C40.1705 237.598 36.4569 237.963 32.7346 237.96L31.9904 237.954C28.5176 237.907 25.057 237.532 21.6545 236.835L20.9269 236.681C12.8608 234.906 6.55642 232.303 1.75604 228.751L1.67108 228.688L1.57147 228.724C-4.06465 230.691 -9.9571 231.818 -15.9168 232.073L-17.1102 232.112H-17.1111C-37.829 232.669 -56.5911 226.201 -79.6151 207.577C-80.6687 205.323 -81.6864 202.95 -82.6697 200.458C-60.9552 217.878 -37.5231 228.114 -18.1473 227.963L-17.2195 227.948C-12.1801 227.816 -7.17965 227.02 -2.34747 225.584L-2.03302 225.491L-2.26056 225.254C-7.58092 219.706 -10.2697 212.454 -10.2332 203.626L-10.2215 202.736C-9.98337 193.995 -6.23914 189.841 -3.01154 187.876L-2.69025 187.687C1.9865 185.003 8.35641 185.264 14.0568 188.375L14.6057 188.686C21.0385 192.438 24.8528 198.771 24.8264 205.63C24.7823 208.445 24.1002 211.213 22.8312 213.726C21.6415 216.082 19.9652 218.156 17.9152 219.812L17.5002 220.138H17.4992C14.1377 222.717 10.4951 224.908 6.64081 226.668L6.2785 226.833L6.62811 227.025C17.386 232.928 29.8116 235.017 41.8879 232.976L43.0549 232.766L43.0568 232.765C62.6103 228.883 78.954 221.944 91.6223 212.133L91.6232 212.134C101.541 204.512 109.505 194.642 114.86 183.338C120.047 172.387 122.642 160.394 122.449 148.288L122.422 147.116V147.03Z" fill="#65895F" stroke="#7F977B" stroke-width="0.4"/>
<path d="M5.28491 231.277C4.66804 231.104 4.08742 230.822 3.57105 230.443C2.26744 229.619 1.02674 228.7 -0.140818 227.693C-1.32742 226.714 -2.43382 225.641 -3.44941 224.485C-3.90644 224.032 -4.27067 223.493 -4.52173 222.9C-4.46674 222.9 -4.03599 223.45 -3.21113 224.275C-2.38627 225.1 -1.21314 226.199 0.143298 227.345C1.49973 228.491 2.792 229.48 3.74517 230.149C4.28449 230.488 4.79903 230.865 5.28491 231.277V231.277Z" fill="#7F977B"/>
<path d="M10.0872 228.601C9.3726 228.561 8.67237 228.384 8.02507 228.078C6.43645 227.424 4.95384 226.538 3.62583 225.448C2.29199 224.37 1.08924 223.14 0.0422751 221.782C-0.426172 221.235 -0.803694 220.616 -1.07587 219.949C-1.02088 219.949 -0.562617 220.572 0.289736 221.553C1.40326 222.828 2.63031 224 3.95577 225.054C5.25699 226.119 6.68171 227.024 8.1992 227.748C9.31734 228.335 10.1055 228.527 10.0872 228.601Z" fill="#7F977B"/>
<path d="M106.742 198.814C106.371 199.527 105.922 200.197 105.404 200.812C103.05 203.889 100.336 206.674 97.3207 209.106C96.7218 209.641 96.0638 210.105 95.3594 210.49C95.8974 209.917 96.4763 209.384 97.0916 208.896C98.1914 207.915 99.6853 206.531 101.262 204.927C102.838 203.323 104.176 201.774 105.129 200.647C105.622 199.997 106.161 199.385 106.742 198.814V198.814Z" fill="white"/>
<path d="M144.457 148.663L136.309 106.778C136.127 105.983 135.643 105.289 134.959 104.844C134.275 104.4 133.445 104.238 132.644 104.394C131.843 104.55 131.134 105.011 130.667 105.68C130.2 106.349 130.011 107.173 130.141 107.979L130.517 109.885L113.662 114.028C111.875 114.466 110.222 115.336 108.85 116.561C107.477 117.787 106.426 119.331 105.789 121.057L95.625 123.559C93.9336 123.976 92.4767 125.046 91.5745 126.536C90.6722 128.026 90.3985 129.814 90.8134 131.505L91.7299 135.172L81.7858 137.628C81.1268 137.79 80.5063 138.081 79.9597 138.483C79.4131 138.886 78.951 139.392 78.6 139.972C78.2489 140.553 78.0157 141.198 77.9136 141.868C77.8116 142.539 77.8427 143.224 78.0052 143.883C78.1676 144.542 78.4583 145.162 78.8606 145.709C79.2629 146.256 79.7689 146.718 80.3497 147.069C80.9306 147.42 81.5749 147.653 82.2459 147.755C82.9169 147.857 83.6014 147.826 84.2603 147.664L94.2136 145.216L94.9193 148.085C95.3356 149.777 96.4065 151.233 97.8965 152.136C99.3864 153.038 101.174 153.312 102.865 152.897L113.213 150.349V150.266C114.569 151.426 116.181 152.246 117.917 152.659C119.652 153.072 121.461 153.065 123.194 152.64L138.151 148.974L138.325 149.891C138.507 150.686 138.991 151.379 139.675 151.824C140.359 152.269 141.189 152.431 141.99 152.275C142.791 152.119 143.5 151.658 143.967 150.989C144.434 150.32 144.623 149.496 144.493 148.69L144.457 148.663Z" fill="#65895F"/>
<path d="M144.457 148.662C144.52 148.892 144.548 149.13 144.539 149.368C144.527 150.078 144.275 150.763 143.824 151.311C143.453 151.755 142.97 152.09 142.425 152.284C141.881 152.477 141.294 152.521 140.726 152.411C140.171 152.293 139.657 152.03 139.237 151.648C138.817 151.266 138.505 150.78 138.334 150.239C138.215 149.836 138.16 149.423 138.069 149.002L138.188 149.075L127.19 151.824L123.899 152.649C122.734 152.984 121.528 153.151 120.316 153.144C117.662 153.093 115.109 152.121 113.094 150.395L113.369 150.22V150.294L113.414 150.468H113.24C109.748 151.32 106.092 152.301 102.16 153.172C101.111 153.306 100.045 153.194 99.0478 152.844C98.0501 152.494 97.148 151.916 96.4132 151.155C95.6509 150.371 95.0938 149.411 94.791 148.36C94.5069 147.315 94.2686 146.27 94.0028 145.216L94.2502 145.372L85.855 147.489C85.131 147.645 84.4436 147.865 83.6646 147.984C82.6718 148.105 81.6651 147.946 80.7576 147.526C79.8502 147.106 79.0782 146.44 78.5285 145.605C77.9789 144.769 77.6734 143.797 77.6465 142.797C77.6196 141.798 77.8723 140.81 78.3763 139.946C78.8009 139.247 79.3724 138.647 80.0512 138.19C80.7301 137.733 81.5001 137.428 82.3081 137.298L91.6748 134.997L91.5099 135.263C91.3266 134.502 91.1341 133.714 90.9325 132.917C90.6951 132.098 90.5265 131.261 90.4284 130.415C90.303 128.668 90.858 126.941 91.9773 125.594C92.5244 124.932 93.1933 124.382 93.9478 123.972C94.6994 123.586 95.5016 123.308 96.3307 123.147L105.734 120.837L105.587 120.975C106.484 118.576 108.151 116.543 110.326 115.192C111.387 114.545 112.544 114.072 113.754 113.789L117.236 112.928L130.471 109.692L130.324 109.922C130.223 109.427 130.132 108.923 130.031 108.428C129.9 107.922 129.866 107.397 129.93 106.879C130.012 106.366 130.213 105.88 130.517 105.459C130.821 105.038 131.219 104.694 131.679 104.455C132.14 104.215 132.65 104.087 133.169 104.079C133.688 104.072 134.201 104.187 134.668 104.413C135.125 104.622 135.528 104.933 135.846 105.323C136.164 105.712 136.388 106.169 136.501 106.659L138.508 117.025C139.755 123.532 140.846 129.214 141.744 133.916C142.642 138.617 143.329 142.284 143.815 144.822C144.044 146.069 144.218 147.031 144.337 147.7C144.392 148.021 144.438 148.259 144.466 148.442C144.474 148.528 144.474 148.614 144.466 148.699C144.435 148.619 144.414 148.536 144.402 148.452C144.402 148.268 144.31 148.03 144.246 147.718L143.65 144.841C143.146 142.311 142.413 138.627 141.478 133.962C140.543 129.297 139.434 123.587 138.151 117.089C137.509 113.838 136.828 110.389 136.107 106.741C136.006 106.309 135.809 105.906 135.529 105.562C135.25 105.217 134.896 104.94 134.494 104.752C134.08 104.556 133.626 104.458 133.167 104.469C132.709 104.479 132.259 104.597 131.855 104.813C131.45 105.029 131.102 105.336 130.837 105.711C130.573 106.085 130.4 106.517 130.333 106.97C130.268 107.445 130.3 107.928 130.425 108.391C130.526 108.886 130.626 109.381 130.718 109.885V110.068L130.535 110.114L117.31 113.386C115.027 114.018 112.571 114.303 110.527 115.595C108.426 116.894 106.814 118.854 105.945 121.167L105.899 121.277H105.789L96.3857 123.596C95.5947 123.746 94.8293 124.008 94.1128 124.375C93.4129 124.76 92.7912 125.273 92.2797 125.887C91.2317 127.143 90.7125 128.756 90.8316 130.387C90.9259 131.21 91.0915 132.022 91.3266 132.816C91.519 133.623 91.7207 134.411 91.904 135.171L91.959 135.382L91.739 135.437L82.4273 137.738C81.6738 137.847 80.9541 138.123 80.3201 138.544C79.6861 138.966 79.1537 139.523 78.7612 140.176C78.3086 140.967 78.0845 141.868 78.1139 142.779C78.1433 143.689 78.425 144.574 78.9277 145.334C79.4304 146.095 80.1343 146.7 80.9609 147.084C81.7875 147.468 82.7045 147.614 83.6096 147.508C84.3061 147.416 85.0393 147.187 85.7542 147.022L94.1402 144.969L94.3419 144.923L94.3877 145.116C94.6535 146.17 94.8918 147.233 95.1667 148.25C95.4505 149.238 95.973 150.142 96.6881 150.88C97.379 151.597 98.2273 152.144 99.1658 152.476C100.104 152.809 101.107 152.918 102.096 152.796C105.954 151.934 109.675 150.963 113.149 150.129L113.03 150.34V150.266L112.901 149.744L113.304 150.092C115.261 151.769 117.74 152.712 120.316 152.759C121.5 152.769 122.679 152.609 123.817 152.283L127.107 151.485L138.105 148.818H138.206V148.919C138.298 149.341 138.353 149.771 138.463 150.147C138.573 150.517 138.753 150.863 138.994 151.164C139.442 151.709 140.057 152.089 140.745 152.246C141.184 152.337 141.638 152.331 142.075 152.229C142.512 152.127 142.922 151.932 143.277 151.657C143.631 151.382 143.922 151.033 144.129 150.635C144.336 150.236 144.454 149.798 144.475 149.35C144.48 149.121 144.474 148.891 144.457 148.662V148.662Z" fill="#7F977B"/>
<path d="M138.481 148.883C138.362 148.883 136.4 140.213 134.1 129.471C131.8 118.73 130.021 109.986 130.15 109.959C130.278 109.931 132.23 118.62 134.54 129.37C136.849 140.121 138.609 148.855 138.481 148.883Z" fill="#7F977B"/>
<path d="M113.176 150.239C113.057 150.239 111.343 143.741 109.272 135.667C107.201 127.592 105.689 121.002 105.808 121.002C105.927 121.002 107.641 127.5 109.712 135.593C111.783 143.686 113.296 150.239 113.176 150.239Z" fill="#7F977B"/>
<path d="M94.1955 145.216C93.5231 143.627 93.0342 141.967 92.7382 140.267C92.2995 138.603 91.9628 136.913 91.73 135.208C92.3975 136.801 92.8833 138.464 93.1781 140.166C93.6174 141.828 93.9571 143.514 94.1955 145.216V145.216Z" fill="#7F977B"/>
<path d="M103.232 123.468C103.232 123.532 102.252 123.678 100.675 124.008C99.8871 124.173 98.9523 124.384 97.9258 124.668C96.8215 124.952 95.7564 125.37 94.7547 125.915C93.7372 126.377 92.9342 127.209 92.5092 128.243C92.3033 129.146 92.2846 130.081 92.4542 130.992C92.6559 132.578 92.9217 133.549 92.8575 133.567C92.4848 132.768 92.2405 131.914 92.1334 131.038C91.9249 130.084 91.9249 129.096 92.1334 128.142C92.2969 127.564 92.6136 127.042 93.05 126.63C93.498 126.2 94.0002 125.83 94.5439 125.53C95.575 124.961 96.6789 124.535 97.825 124.265C98.8698 123.999 99.8229 123.825 100.574 123.697C101.446 123.503 102.34 123.426 103.232 123.468Z" fill="white"/>
<path d="M127.337 112.351C127.062 112.483 126.768 112.573 126.466 112.616C125.907 112.754 125.082 112.946 124.065 113.166L116.128 114.834C114.689 115.134 113.297 115.621 111.985 116.282C110.922 116.835 109.986 117.603 109.235 118.537C108.565 119.42 108.098 120.44 107.87 121.525C107.822 121.218 107.844 120.905 107.934 120.608C108.136 119.789 108.5 119.02 109.006 118.345C109.752 117.345 110.705 116.519 111.802 115.925C113.136 115.215 114.565 114.699 116.045 114.394C119.161 113.725 121.975 113.231 124.028 112.855C125.045 112.671 125.861 112.534 126.457 112.442C126.746 112.38 127.041 112.349 127.337 112.351V112.351Z" fill="white"/>
<path d="M89.9884 137.49C89.457 137.851 88.8534 138.092 88.2196 138.196C87.0739 138.508 85.47 138.636 83.7378 139.003C82.9378 139.165 82.1638 139.437 81.4374 139.809C80.8509 140.114 80.3209 140.517 79.8702 141.001C79.481 141.482 79.146 142.004 78.8712 142.559C78.9114 141.903 79.1769 141.281 79.6227 140.799C80.0679 140.247 80.6156 139.787 81.2357 139.443C81.9837 139.014 82.7938 138.705 83.637 138.526C85.4059 138.15 87.0189 138.077 88.1462 137.848C89.2735 137.619 89.9609 137.408 89.9884 137.49Z" fill="white"/>
<path d="M134.201 105.22C134.201 105.294 133.862 105.284 133.376 105.413C132.757 105.581 132.2 105.924 131.772 106.402C131.36 106.9 131.108 107.51 131.048 108.153C130.993 108.648 131.048 108.978 130.984 108.987C130.92 108.996 130.755 108.703 130.728 108.144C130.697 107.402 130.945 106.676 131.424 106.109C131.911 105.552 132.587 105.193 133.321 105.101C133.88 105.037 134.21 105.165 134.201 105.22Z" fill="white"/>
<path d="M256.394 154.84C257.534 156.227 266.171 166.569 279.138 177.509C292.712 188.961 311.052 201.09 330.519 204.262L331.447 204.406C341.922 205.959 349.243 204.909 354.864 202.653C359.779 200.679 363.382 197.787 366.642 194.941L368.021 193.727C371.289 190.835 374.433 188.055 378.354 186.586C382.141 185.168 386.672 184.968 392.758 187.131L393.352 187.348C398.965 189.456 401.58 192.94 402.726 196.97C403.734 200.514 403.608 204.486 403.348 208.348L403.231 209.996C402.865 215.083 402.518 219.883 404.025 223.93C405.495 227.875 408.712 231.077 415.275 233.18L415.921 233.379V233.38C419.9 234.572 424.178 233.882 428.532 231.969C432.886 230.056 437.333 226.912 441.665 223.167C449.245 216.612 456.498 208.189 462.308 201.227L464.707 198.342C466.908 195.696 468.769 193.42 470.384 191.554C471.946 189.752 473.271 188.344 474.445 187.365L477.601 189.882C476.816 190.816 475.444 192.35 473.781 194.227C472.463 195.715 470.965 197.416 469.439 199.202L467.91 201.009L467.909 201.01C461.647 208.569 453.94 217.859 445.661 225.261C437.504 232.554 428.831 237.976 420.472 238.144L420.075 238.148H420.074C418.489 238.153 416.911 237.955 415.379 237.559L414.724 237.377C406.068 234.785 401.999 230.38 400.165 225.392C398.323 220.384 398.722 214.762 399.076 209.703L399.075 209.702C399.413 205.004 399.595 201.134 398.705 198.073C398.258 196.536 397.54 195.198 396.435 194.059C395.401 192.992 394.035 192.107 392.252 191.394L391.889 191.254C386.722 189.318 383.045 189.28 379.846 190.463C377.061 191.493 374.655 193.444 371.957 195.808L370.781 196.845C366.967 200.219 362.714 203.982 356.551 206.484C350.392 208.984 342.309 210.229 330.836 208.529H330.837C319.147 206.793 300.347 200.682 277.311 181.472L276.212 180.547L276.211 180.546L274.644 179.214C266.901 172.556 259.713 165.276 253.151 157.448L256.394 154.84Z" fill="#65895F" stroke="#7F977B" stroke-width="0.4"/>
<path d="M355.47 202.266C355.47 202.266 355.287 202.44 354.92 202.669C354.406 203.009 353.871 203.315 353.316 203.585C351.484 204.482 349.548 205.147 347.552 205.565C345.557 205.975 343.518 206.132 341.484 206.032C340.87 206 340.259 205.936 339.651 205.84C339.425 205.821 339.202 205.768 338.991 205.684C338.991 205.611 339.963 205.684 341.503 205.684C345.524 205.704 349.505 204.88 353.188 203.265C354.59 202.623 355.434 202.156 355.47 202.266Z" fill="white"/>
<path d="M256.909 158.429C255.969 159.463 254.657 160.081 253.262 160.148C251.866 160.215 250.501 159.725 249.467 158.786L241.42 151.454L248.514 143.655L256.551 150.987C257.585 151.927 258.204 153.238 258.271 154.634C258.338 156.029 257.848 157.394 256.909 158.429Z" fill="#65895F"/>
<path d="M256.909 158.429C257.179 158.033 257.427 157.623 257.651 157.2C258.217 156.004 258.306 154.638 257.899 153.379C257.623 152.508 257.12 151.726 256.441 151.115L254.013 148.943C252.299 147.385 250.392 145.671 248.367 143.847H248.679L245.132 147.751L241.585 151.646V151.335L247.194 156.44L249.595 158.649C250.266 159.264 251.088 159.691 251.978 159.886C253.272 160.169 254.625 159.95 255.763 159.272C256.165 159.007 256.55 158.72 256.918 158.41C256.624 158.803 256.261 159.139 255.846 159.4C254.69 160.162 253.28 160.435 251.923 160.161C250.973 159.975 250.09 159.539 249.366 158.896C248.605 158.218 247.799 157.485 246.937 156.724L241.282 151.619L241.117 151.472L241.273 151.307L244.811 147.403L248.358 143.517L248.504 143.352L248.669 143.499L254.278 148.64L256.68 150.849C257.391 151.508 257.911 152.347 258.183 153.278C258.581 154.6 258.443 156.026 257.798 157.246C257.581 157.694 257.279 158.096 256.909 158.429V158.429Z" fill="#7F977B"/>
<path d="M216.252 114.4L202.377 102.925C202.118 102.711 201.904 102.448 201.746 102.151C201.589 101.854 201.492 101.529 201.461 101.194C201.429 100.86 201.464 100.523 201.563 100.201C201.662 99.8804 201.823 99.5819 202.037 99.3232V99.3232C202.252 99.0643 202.515 98.8502 202.812 98.693C203.109 98.5358 203.434 98.4387 203.768 98.4073C204.103 98.3758 204.44 98.4105 204.761 98.5095C205.082 98.6085 205.381 98.7698 205.639 98.9841L219.506 110.459L216.252 114.4Z" fill="#65895F"/>
<path d="M203.201 131.163L189.344 119.688C189.084 119.475 188.869 119.212 188.711 118.915C188.553 118.619 188.455 118.294 188.423 117.959C188.39 117.625 188.424 117.287 188.523 116.966C188.621 116.644 188.782 116.346 188.995 116.086V116.086C189.209 115.826 189.472 115.611 189.769 115.453C190.066 115.296 190.391 115.198 190.726 115.166C191.061 115.135 191.398 115.17 191.72 115.27C192.041 115.369 192.339 115.532 192.597 115.747L206.473 127.213L203.201 131.163Z" fill="#65895F"/>
<g opacity="0.6">
<path opacity="0.6" d="M216.252 114.4L202.377 102.925C202.118 102.711 201.904 102.448 201.746 102.151C201.589 101.854 201.492 101.529 201.461 101.194C201.429 100.86 201.464 100.523 201.563 100.201C201.662 99.8804 201.823 99.5819 202.037 99.3232V99.3232C202.252 99.0643 202.515 98.8502 202.812 98.693C203.109 98.5358 203.434 98.4387 203.768 98.4073C204.103 98.3758 204.44 98.4105 204.761 98.5095C205.082 98.6085 205.381 98.7698 205.639 98.9841L219.506 110.459L216.252 114.4Z" fill="white"/>
</g>
<g opacity="0.6">
<path opacity="0.6" d="M203.201 131.163L189.344 119.688C189.084 119.475 188.869 119.212 188.711 118.915C188.553 118.619 188.455 118.294 188.423 117.959C188.39 117.625 188.424 117.287 188.523 116.966C188.621 116.644 188.782 116.346 188.995 116.086V116.086C189.209 115.826 189.472 115.611 189.769 115.453C190.066 115.296 190.391 115.198 190.726 115.166C191.061 115.135 191.398 115.17 191.72 115.27C192.041 115.369 192.339 115.532 192.597 115.747L206.473 127.213L203.201 131.163Z" fill="white"/>
</g>
<path d="M216.252 114.4C216.316 114.294 216.386 114.193 216.463 114.097L217.087 113.291L219.405 110.367V110.56L212.889 105.262L208.81 101.908L206.62 100.075L205.493 99.1582C205.149 98.8624 204.724 98.6772 204.274 98.6266C203.893 98.5778 203.506 98.6243 203.148 98.7618C202.79 98.8994 202.471 99.1238 202.221 99.4148C201.979 99.6989 201.807 100.037 201.721 100.4C201.635 100.763 201.637 101.142 201.726 101.504C201.814 101.846 201.984 102.16 202.221 102.421C202.479 102.692 202.758 102.943 203.055 103.172L204.778 104.602L210.717 109.597L214.74 113.025L215.84 113.941C215.98 114.054 216.112 114.176 216.234 114.308C216.097 114.229 215.968 114.137 215.849 114.033L214.749 113.117C213.732 112.301 212.339 111.192 210.653 109.826L204.549 104.868L202.789 103.429C202.468 103.182 202.162 102.916 201.872 102.632C201.485 102.212 201.237 101.682 201.164 101.116C201.091 100.549 201.197 99.9739 201.466 99.47C201.735 98.9661 202.154 98.5585 202.666 98.3039C203.177 98.0492 203.755 97.9602 204.32 98.0492C204.855 98.1181 205.361 98.3374 205.777 98.6816L206.895 99.5981L209.076 101.431L213.136 104.813L219.552 110.211L219.662 110.303L219.57 110.404L217.087 113.3L216.427 114.033C216.384 114.162 216.326 114.285 216.252 114.4V114.4Z" fill="#7F977B"/>
<path d="M203.201 131.163C203.264 131.054 203.337 130.953 203.421 130.86C203.586 130.64 203.788 130.374 204.045 130.054L206.363 127.13V127.322L199.847 122.016L195.768 118.671L193.578 116.838L192.451 115.921C192.1 115.631 191.674 115.447 191.223 115.389C190.841 115.344 190.455 115.393 190.097 115.532C189.739 115.671 189.42 115.896 189.17 116.187C188.926 116.47 188.755 116.808 188.671 117.172C188.586 117.536 188.591 117.915 188.684 118.276C188.77 118.616 188.937 118.931 189.17 119.193C189.432 119.461 189.714 119.709 190.013 119.935L191.727 121.374L197.675 126.369L201.698 129.797L202.798 130.713C202.94 130.821 203.069 130.944 203.183 131.08C203.183 131.08 203.055 130.998 202.807 130.805L201.698 129.934L197.601 126.644L191.507 121.686L189.747 120.238C189.421 119.996 189.115 119.729 188.83 119.44C188.545 119.115 188.344 118.725 188.244 118.304C188.132 117.874 188.127 117.424 188.227 116.991C188.328 116.559 188.532 116.157 188.821 115.82C189.124 115.48 189.505 115.219 189.932 115.06C190.358 114.9 190.817 114.846 191.268 114.904C191.804 114.973 192.309 115.192 192.726 115.536C193.101 115.857 193.477 116.159 193.853 116.453L196.034 118.286L200.094 121.658L206.51 127.066L206.611 127.157L206.528 127.258C205.483 128.459 204.649 129.43 204.035 130.145L203.385 130.888C203.293 131.089 203.201 131.172 203.201 131.163Z" fill="#7F977B"/>
<path d="M247.78 128.945L248.147 128.505C248.922 127.572 249.323 126.385 249.274 125.173C249.225 123.962 248.729 122.811 247.881 121.944C247.033 121.077 245.894 120.555 244.684 120.478C243.474 120.402 242.278 120.777 241.328 121.53L221.018 104.611L197.785 132.409L218.571 148.906C217.927 149.913 217.672 151.122 217.856 152.303C218.04 153.485 218.65 154.558 219.57 155.322V155.322C220.555 156.137 221.821 156.533 223.095 156.427C224.37 156.321 225.552 155.72 226.389 154.754C229.323 156.967 233.004 157.95 236.651 157.493C240.297 157.036 243.622 155.175 245.92 152.306L249.256 148.146C251.482 145.351 252.568 141.817 252.294 138.255C252.021 134.692 250.408 131.366 247.78 128.945V128.945Z" fill="#65895F"/>
<path d="M247.781 128.945L247.955 129.1L248.44 129.568C248.709 129.816 248.958 130.086 249.183 130.374L249.632 130.924L250.09 131.593C250.9 132.762 251.519 134.052 251.923 135.415C252.533 137.473 252.666 139.643 252.312 141.76C251.958 143.877 251.126 145.885 249.879 147.632C249.137 148.686 248.275 149.685 247.432 150.776C246.582 151.928 245.641 153.01 244.619 154.011C242.295 156.185 239.304 157.51 236.132 157.769C232.62 158.074 229.12 157.076 226.298 154.964H226.582C225.724 155.942 224.53 156.56 223.236 156.696C222.564 156.767 221.885 156.703 221.238 156.508C220.592 156.313 219.99 155.991 219.47 155.56V155.56C218.508 154.761 217.872 153.638 217.679 152.403C217.487 151.168 217.752 149.905 218.425 148.851L218.471 149.135L202.349 136.277L197.647 132.537L197.464 132.4L197.611 132.217C206.079 122.135 213.989 112.658 220.872 104.446L221 104.291L221.147 104.419L241.411 121.383H241.255C241.996 120.8 242.886 120.439 243.824 120.341C244.762 120.243 245.708 120.412 246.553 120.829C247.399 121.246 248.109 121.894 248.602 122.697C249.095 123.501 249.35 124.428 249.339 125.37C249.321 126.359 249.001 127.318 248.422 128.12C248.275 128.322 248.116 128.515 247.945 128.697L247.771 128.89C247.771 128.89 247.991 128.615 248.367 128.083C248.907 127.268 249.194 126.311 249.192 125.334C249.189 124.563 249.002 123.804 248.647 123.12C248.291 122.436 247.777 121.847 247.148 121.402C246.351 120.814 245.389 120.494 244.399 120.485C243.299 120.472 242.227 120.838 241.365 121.521L241.282 121.585L241.2 121.521L220.853 104.657H221.128L197.959 132.519V132.198L202.652 135.938L218.736 148.769L218.892 148.888L218.782 149.053C218.16 150.014 217.91 151.169 218.079 152.301C218.247 153.433 218.823 154.465 219.699 155.203V155.203C220.643 155.983 221.855 156.364 223.076 156.263C224.297 156.162 225.43 155.587 226.233 154.662L226.362 154.524L226.508 154.634C229.124 156.587 232.341 157.562 235.601 157.389C238.861 157.217 241.957 155.908 244.353 153.69C245.35 152.699 246.269 151.633 247.102 150.501C247.955 149.419 248.834 148.411 249.568 147.385C251.206 145.094 252.119 142.364 252.188 139.548C252.256 136.733 251.478 133.961 249.953 131.593C249.797 131.355 249.65 131.126 249.504 130.915L249.064 130.365C248.844 130.069 248.605 129.787 248.349 129.522L247.881 129.036C247.808 128.975 247.774 128.945 247.781 128.945Z" fill="#7F977B"/>
<path d="M224.529 129.478L210.198 117.627L207.879 120.431L222.21 132.282L224.529 129.478Z" fill="#E0E0E0"/>
<path d="M247.78 128.945C247.555 129.326 247.297 129.688 247.01 130.026C246.497 130.714 245.736 131.685 244.783 132.877C242.886 135.269 240.201 138.522 237.204 142.088C234.207 145.653 231.54 148.815 229.514 151.207L227.186 153.956C226.911 154.307 226.604 154.633 226.27 154.928C226.495 154.546 226.753 154.184 227.04 153.846C227.553 153.159 228.314 152.187 229.267 150.996C231.164 148.604 233.849 145.35 236.846 141.831L244.536 132.666L246.873 129.916C247.144 129.565 247.448 129.239 247.78 128.945V128.945Z" fill="#7F977B"/>
<path d="M241.328 121.494C241.088 121.897 240.812 122.277 240.503 122.63C239.944 123.345 239.119 124.371 238.102 125.627C236.049 128.138 233.171 131.566 229.963 135.324C226.755 139.081 223.878 142.418 221.715 144.938C220.688 146.111 219.882 147.092 219.203 147.834C218.908 148.202 218.583 148.546 218.232 148.861C218.482 148.462 218.76 148.082 219.066 147.724C219.625 147.009 220.441 145.983 221.467 144.727C223.52 142.216 226.398 138.788 229.606 135.031L237.854 125.425L240.366 122.52C240.66 122.154 240.981 121.811 241.328 121.494V121.494Z" fill="#7F977B"/>
<path d="M206.28 81.3786H199.661L202.961 72.3535L192.879 86.1752H199.498L196.198 95.2003L206.28 81.3786Z" fill="#CCD5CA"/>
<path d="M157.911 91.4431H147.953L152.918 108.097L137.748 82.5918H147.706L142.741 65.9378L157.911 91.4431Z" fill="#CCD5CA"/>
</g>
</svg>
