<svg width="19" height="16" viewBox="0 0 19 16" fill="none" xmlns="http://www.w3.org/2000/svg">
<path d="M7.94775 0C11.9241 0.000118543 15.1479 3.22383 15.1479 7.2002C15.1479 8.58046 14.758 9.86935 14.0845 10.9648C14.3651 10.8673 14.6894 10.9301 14.9136 11.1543L18.3931 14.6338C18.7055 14.9462 18.7055 15.4532 18.3931 15.7656C18.0807 16.0779 17.5746 16.0778 17.2622 15.7656L13.7817 12.2861C13.6265 12.1309 13.5483 11.9271 13.5474 11.7236C12.2275 13.3555 10.21 14.4003 7.94775 14.4004C3.97139 14.4004 0.747677 11.1765 0.747559 7.2002C0.747559 3.22376 3.97132 0 7.94775 0ZM7.94775 1.59961C4.85497 1.59961 2.34717 4.10741 2.34717 7.2002C2.34729 10.2929 4.85504 12.7998 7.94775 12.7998C11.0404 12.7997 13.5472 10.2928 13.5474 7.2002C13.5474 4.10748 11.0404 1.59973 7.94775 1.59961Z" fill="white"/>
</svg>
