<svg width="40" height="40" viewBox="0 0 40 40" fill="none" xmlns="http://www.w3.org/2000/svg">
<rect x="0.5" y="0.5" width="39" height="39" rx="19.5" stroke="#65895F"/>
<path d="M20.1878 31.7711C18.9673 32.4421 19.0192 31.4542 19.0718 31.1499C19.1029 30.9686 19.245 30.1181 19.245 30.1181C19.2854 29.8098 19.3281 29.3329 19.2063 29.0286C19.0706 28.6937 18.5331 28.5194 18.1381 28.4345C12.3124 27.6683 8 23.618 8 18.7825C8 13.3886 13.4389 9 20.122 9C26.8051 9 32.2434 13.3886 32.2434 18.7825C32.2434 24.8403 25.8184 28.6752 20.1878 31.7711ZM16.29 20.9881C16.29 20.6647 16.025 20.402 15.6993 20.402H14.0503V16.5463C14.0503 16.223 13.7853 15.9603 13.4597 15.9603C13.1335 15.9603 12.869 16.223 12.869 16.5463V20.9886C12.869 21.3125 13.134 21.5753 13.4597 21.5753H15.6993C16.025 21.5758 16.29 21.312 16.29 20.9881ZM18.0152 16.5463C18.0152 16.223 17.7502 15.9603 17.4245 15.9603C17.0983 15.9603 16.8339 16.223 16.8339 16.5463V20.9886C16.8339 21.3125 17.0989 21.5753 17.4245 21.5753C17.7507 21.5753 18.0152 21.312 18.0152 20.9886V16.5463ZM23.4079 16.5463C23.4079 16.223 23.1428 15.9603 22.8172 15.9603C22.491 15.9603 22.2254 16.223 22.2254 16.5463V19.2952L19.9286 16.1953C19.8177 16.0486 19.6405 15.9608 19.4563 15.9608C19.3928 15.9608 19.3299 15.9701 19.2686 15.9909C19.0267 16.0711 18.8645 16.2946 18.8645 16.5469V20.9892C18.8645 21.3131 19.1301 21.5758 19.4563 21.5758C19.7831 21.5758 20.0481 21.3125 20.0481 20.9892V18.2415L22.3438 21.3414C22.4546 21.4881 22.6313 21.5758 22.816 21.5758C22.879 21.5758 22.9425 21.5654 23.0037 21.5452C23.2462 21.4661 23.4079 21.2427 23.4079 20.9892V16.5463ZM27.0326 18.1814H25.3836V17.1323H27.0326C27.3594 17.1323 27.6244 16.8696 27.6244 16.5463C27.6244 16.223 27.3588 15.9603 27.0326 15.9603H24.793C24.4668 15.9603 24.2023 16.223 24.2023 16.5463C24.2023 16.5469 24.2023 16.5469 24.2023 16.548V18.7663C24.2023 18.7663 24.2023 18.7669 24.2023 18.7675V20.9875C24.2023 21.3114 24.4679 21.5741 24.793 21.5741H27.0326C27.3588 21.5741 27.6244 21.3108 27.6244 20.9875C27.6244 20.6642 27.3588 20.4014 27.0326 20.4014H25.3836V19.3524H27.0326C27.3594 19.3524 27.6244 19.0896 27.6244 18.7663C27.6244 18.4424 27.3588 18.1797 27.0326 18.1797V18.1814Z" fill="#65895F"/>
</svg>
