<svg width="40" height="40" viewBox="0 0 40 40" fill="none" xmlns="http://www.w3.org/2000/svg">
<rect x="0.5" y="0.5" width="39" height="39" rx="19.5" stroke="#65895F"/>
<path d="M29.3923 10.6084C27.2477 8.46385 23.7585 8.46385 21.6139 10.6084L16.6637 15.5581C14.5192 17.7027 14.5192 21.1919 16.6637 23.3365C17.0318 23.7045 17.4418 24.0045 17.8753 24.2465L20.2084 21.9134C19.6879 21.8414 19.1843 21.6149 18.7853 21.2154C17.8108 20.2408 17.8108 18.6543 18.7853 17.6797L23.735 12.7295C24.7096 11.755 26.2961 11.755 27.2707 12.7295C28.2452 13.7041 28.2452 15.2906 27.2707 16.2652L25.4476 18.0882C25.9586 19.3363 26.0691 20.7064 25.7756 22.0029L29.3918 18.3868C31.5363 16.2422 31.5368 12.753 29.3923 10.6084Z" fill="#65895F"/>
<path d="M23.337 16.663C22.9689 16.295 22.5589 15.9949 22.1254 15.7529L19.7923 18.086C20.3128 18.158 20.8164 18.3845 21.2154 18.7841C22.1899 19.7586 22.1899 21.3452 21.2154 22.3197L16.2657 27.2694C15.2911 28.2439 13.7046 28.2439 12.73 27.2694C11.7555 26.2949 11.7555 24.7083 12.73 23.7338L14.5476 21.9162C14.0316 20.6596 13.9316 19.2876 14.2271 17.994L10.6084 21.6127C8.46385 23.7573 8.46385 27.2464 10.6084 29.391C12.753 31.5356 16.2422 31.5356 18.3868 29.391L23.337 24.4408C25.4815 22.2962 25.4815 18.8076 23.337 16.663Z" fill="#65895F"/>
</svg>
